<?xml version="1.0" encoding="UTF-8"?>
<svg height="600" width="800" xmlns="http://www.w3.org/2000/svg" xmlns:xlink="http://www.w3.org/1999/xlink">
    <g id="Notes" font-family="'LucidaGrande', 'Lucida Grande', sans-serif" font-size="13">
        <rect fill="white" height="600.0" width="800.0" x="0.0" y="0.0" />
        <g font-size="13">
            <text x="18.0" y="176.0">Small</text>
            <text x="18.0" y="376.0">Medium</text>
            <text x="18.0" y="576.0">Large</text>
        </g>
        <g font-size="9">
            <text x="250.0" y="30.0">Ultralight</text>
            <text x="450.0" y="30.0">Regular</text>
            <text x="650.0" y="30.0">Black</text>
            <text id="template-version" fill="#505050" text-anchor="end" x="785.0" y="575.0">Template v.3.0</text>
            <a href="https://wangchujiang.com/#/app">
                <text fill="#505050" text-anchor="end" x="785.0" y="590.0">https://wangchujiang.com/#/app</text>
            </a>
        </g>
    </g>
    <g id="Guides" stroke="rgb(39, 170, 225)" stroke-width="0.5">
        <path id="Capline-S" d="M18,76 l800,0" />
        <path id="H-reference" d="M85,145.755 L87.685,145.755 L113.369,79.287 L114.052,79.287 L114.052,76 L112.148,76 L85,145.755 Z M95.693,121.536 L130.996,121.536 L130.263,119.313 L96.474,119.313 L95.693,121.536 Z M139.15,145.755 L141.787,145.755 L114.638,76 L113.466,76 L113.466,79.287 L139.15,145.755 Z" stroke="none" />
        <path id="Baseline-S" d="M18,146 l800,0" />
        <path id="left-margin-Ultralight-S" d="M221,56 l0,110" />
        <path id="right-margin-Ultralight-S" d="M309,56 l0,110" />
        <path id="left-margin-Regular-S" d="M421,56 l0,110" />
        <path id="right-margin-Regular-S" d="M509,56 l0,110" />
        <path id="left-margin-Black-S" d="M621,56 l0,110" />
        <path id="right-margin-Black-S" d="M709,56 l0,110" />
        <path id="Capline-M" d="M18,276 l800,0" />
        <path id="Baseline-M" d="M18,346 l800,0" />
        <path id="Capline-L" d="M18,476 l800,0" />
        <path id="Baseline-L" d="M18,546 l800,0" />
    </g>
    <g id="Symbols">
        <g id="Ultralight-S">
            <path d="M266.317,105.06 C267.669,108.833 268.192,114.068 267.852,116.976 C267.322,121.518 264.028,124.865 260.493,124.453 C257.717,124.129 255.619,121.581 255.103,118.302 C252.241,119.981 248.94,119.974 246.93,118.031 C244.37,115.559 244.872,110.889 248.049,107.601 C250.083,105.495 254.464,102.58 258.24,101.235 C254.297,100.522 249.5,98.357 247.152,96.609 C243.483,93.879 242.231,89.351 244.356,86.495 C246.025,84.255 249.28,83.71 252.378,84.904 C252.355,81.586 254.012,78.73 256.698,77.961 C260.12,76.981 263.914,79.75 265.172,84.145 C265.979,86.96 266.313,92.211 265.59,96.155 C268.179,93.095 272.453,90.025 275.141,88.865 C279.338,87.052 283.885,88.233 285.295,91.5 C286.402,94.067 285.246,97.156 282.663,99.242 C285.549,100.883 287.193,103.744 286.517,106.456 C285.654,109.908 281.359,111.81 276.923,110.702 C274.085,109.995 269.376,107.662 266.324,105.067 C266.322,105.064 266.319,105.062 266.317,105.06 Z" />
            <path d="M261.073,126.247 C260.813,126.247 260.552,126.232 260.29,126.201 C257.447,125.87 255.074,123.775 253.938,120.763 C250.889,121.794 247.764,121.286 245.706,119.297 C244.07,117.716 243.317,115.457 243.588,112.934 C243.841,110.577 244.976,108.248 246.783,106.378 C248.143,104.97 250.528,103.159 253.201,101.647 C250.319,100.59 247.671,99.19 246.1,98.021 C241.659,94.716 240.243,89.074 242.944,85.444 C244.653,83.149 247.655,82.142 250.829,82.664 C251.461,79.509 253.463,77.057 256.213,76.269 C258.401,75.642 260.735,76.12 262.784,77.615 C264.699,79.013 266.148,81.16 266.864,83.661 C267.404,85.543 267.779,88.515 267.752,91.585 C270.108,89.618 272.645,88.025 274.444,87.249 C276.831,86.218 279.41,85.978 281.706,86.573 C284.161,87.211 286.009,88.713 286.911,90.802 C288.045,93.43 287.417,96.533 285.377,99.021 C287.793,101.147 288.916,104.107 288.225,106.882 C287.128,111.271 281.867,113.75 276.497,112.41 C274.598,111.937 271.836,110.776 269.191,109.217 C269.716,112.243 269.827,115.236 269.6,117.18 C268.996,122.356 265.258,126.246 261.073,126.247 Z M255.103,116.542 C255.36,116.542 255.617,116.598 255.856,116.711 C256.382,116.96 256.751,117.453 256.842,118.028 C257.247,120.603 258.796,122.482 260.697,122.704 C263.215,122.998 265.693,120.281 266.103,116.772 C266.404,114.201 265.937,109.219 264.659,105.654 C264.331,104.739 264.807,103.731 265.723,103.403 C266.357,103.176 267.037,103.335 267.503,103.76 C270.387,106.196 274.85,108.371 277.349,108.994 C280.777,109.85 284.194,108.492 284.809,106.03 C285.271,104.174 284.059,102.061 281.793,100.773 C281.287,100.485 280.956,99.965 280.909,99.385 C280.861,98.805 281.104,98.239 281.557,97.873 C283.584,96.236 284.437,93.955 283.679,92.198 C283.217,91.127 282.202,90.34 280.821,89.981 C279.28,89.581 277.511,89.759 275.839,90.481 C273.459,91.508 269.377,94.404 266.933,97.292 C266.418,97.9 265.558,98.087 264.837,97.746 C264.115,97.405 263.714,96.621 263.858,95.837 C264.541,92.114 264.193,87.121 263.48,84.63 C262.979,82.879 261.994,81.397 260.709,80.459 C259.557,79.618 258.304,79.332 257.183,79.653 C255.344,80.18 254.121,82.285 254.138,84.892 C254.142,85.474 253.858,86.021 253.379,86.352 C252.9,86.683 252.289,86.756 251.745,86.547 C249.313,85.61 246.911,86.012 245.768,87.547 C244.253,89.583 245.368,93.087 248.203,95.196 C250.281,96.743 254.829,98.829 258.553,99.503 C259.338,99.644 259.929,100.296 259.995,101.091 C260.06,101.886 259.582,102.625 258.831,102.893 C255.264,104.164 251.115,106.961 249.316,108.823 C248.049,110.134 247.258,111.727 247.089,113.31 C246.936,114.728 247.314,115.955 248.153,116.764 C249.529,118.095 251.964,118.103 254.212,116.784 C254.486,116.623 254.794,116.542 255.103,116.542 Z" />
            <path d="M278.054,146 C277.903,146 277.749,145.98 277.596,145.939 C276.657,145.687 276.1,144.721 276.353,143.782 C276.421,143.527 276.487,143.274 276.549,143.021 C276.783,142.077 277.737,141.502 278.681,141.735 C279.624,141.969 280.2,142.924 279.967,143.867 C279.899,144.142 279.828,144.419 279.753,144.696 C279.542,145.482 278.831,146 278.054,146 Z" />
            <path d="M279.1,140.727 C279.026,140.727 278.951,140.723 278.875,140.713 C277.911,140.59 277.229,139.708 277.352,138.743 C278.38,130.69 276.69,122.847 272.328,115.432 C268.977,109.734 265.208,106.429 265.17,106.396 C265.137,106.367 265.105,106.338 265.074,106.306 C265.073,106.306 265.072,106.305 265.072,106.305 L265.072,106.305 C264.385,105.617 264.384,104.502 265.071,103.814 C265.744,103.142 266.825,103.126 267.515,103.77 C268.571,104.699 283.515,118.269 280.845,139.189 C280.731,140.078 279.973,140.727 279.1,140.727 Z" />
        </g>
        <g id="Regular-S">
            <path d="M466.317,105.06 C467.669,108.833 468.192,114.068 467.852,116.976 C467.322,121.518 464.028,124.865 460.493,124.453 C457.717,124.129 455.619,121.581 455.103,118.302 C452.241,119.981 448.94,119.974 446.93,118.031 C444.37,115.559 444.872,110.889 448.049,107.601 C450.083,105.495 454.464,102.58 458.24,101.235 C454.297,100.522 449.5,98.357 447.152,96.609 C443.483,93.879 442.231,89.351 444.356,86.495 C446.025,84.255 449.28,83.71 452.378,84.904 C452.355,81.586 454.012,78.73 456.698,77.961 C460.12,76.981 463.914,79.75 465.172,84.145 C465.979,86.96 466.313,92.211 465.59,96.155 C468.179,93.095 472.453,90.025 475.141,88.865 C479.338,87.052 483.885,88.233 485.295,91.5 C486.402,94.067 485.246,97.156 482.663,99.242 C485.549,100.883 487.193,103.744 486.517,106.456 C485.654,109.908 481.359,111.81 476.923,110.702 C474.085,109.995 469.376,107.662 466.324,105.067 C466.322,105.064 466.319,105.062 466.317,105.06 Z" />
            <path d="M461.073,126.247 C460.813,126.247 460.552,126.232 460.29,126.201 C457.447,125.87 455.074,123.775 453.938,120.763 C450.889,121.794 447.764,121.286 445.706,119.297 C444.07,117.716 443.317,115.457 443.588,112.934 C443.841,110.577 444.976,108.248 446.783,106.378 C448.143,104.97 450.528,103.159 453.201,101.647 C450.319,100.59 447.671,99.19 446.1,98.021 C441.659,94.716 440.243,89.074 442.944,85.444 C444.653,83.149 447.655,82.142 450.829,82.664 C451.461,79.509 453.463,77.057 456.213,76.269 C458.401,75.642 460.735,76.12 462.784,77.615 C464.699,79.013 466.148,81.16 466.864,83.661 C467.404,85.543 467.779,88.515 467.752,91.585 C470.108,89.618 472.645,88.025 474.444,87.249 C476.831,86.218 479.41,85.978 481.706,86.573 C484.161,87.211 486.009,88.713 486.911,90.802 C488.045,93.43 487.417,96.533 485.377,99.021 C487.793,101.147 488.916,104.107 488.225,106.882 C487.128,111.271 481.867,113.75 476.497,112.41 C474.598,111.937 471.836,110.776 469.191,109.217 C469.716,112.243 469.827,115.236 469.6,117.18 C468.996,122.356 465.258,126.246 461.073,126.247 Z M455.103,116.542 C455.36,116.542 455.617,116.598 455.856,116.711 C456.382,116.96 456.751,117.453 456.842,118.028 C457.247,120.603 458.796,122.482 460.697,122.704 C463.215,122.998 465.693,120.281 466.103,116.772 C466.404,114.201 465.937,109.219 464.659,105.654 C464.331,104.739 464.807,103.731 465.723,103.403 C466.357,103.176 467.037,103.335 467.503,103.76 C470.387,106.196 474.85,108.371 477.349,108.994 C480.777,109.85 484.194,108.492 484.809,106.03 C485.271,104.174 484.059,102.061 481.793,100.773 C481.287,100.485 480.956,99.965 480.909,99.385 C480.861,98.805 481.104,98.239 481.557,97.873 C483.584,96.236 484.437,93.955 483.679,92.198 C483.217,91.127 482.202,90.34 480.821,89.981 C479.28,89.581 477.511,89.759 475.839,90.481 C473.459,91.508 469.377,94.404 466.933,97.292 C466.418,97.9 465.558,98.087 464.837,97.746 C464.115,97.405 463.714,96.621 463.858,95.837 C464.541,92.114 464.193,87.121 463.48,84.63 C462.979,82.879 461.994,81.397 460.709,80.459 C459.557,79.618 458.304,79.332 457.183,79.653 C455.344,80.18 454.121,82.285 454.138,84.892 C454.142,85.474 453.858,86.021 453.379,86.352 C452.9,86.683 452.289,86.756 451.745,86.547 C449.313,85.61 446.911,86.012 445.768,87.547 C444.253,89.583 445.368,93.087 448.203,95.196 C450.28,96.743 454.829,98.829 458.553,99.503 C459.338,99.644 459.929,100.296 459.995,101.091 C460.06,101.886 459.582,102.625 458.831,102.893 C455.264,104.164 451.115,106.961 449.316,108.823 C448.049,110.134 447.258,111.727 447.089,113.31 C446.936,114.728 447.314,115.955 448.153,116.764 C449.529,118.095 451.964,118.103 454.212,116.784 C454.486,116.623 454.794,116.542 455.103,116.542 Z" />
            <path d="M478.054,146 C477.903,146 477.749,145.98 477.596,145.939 C476.657,145.687 476.1,144.721 476.353,143.782 C476.421,143.527 476.487,143.274 476.549,143.021 C476.783,142.077 477.737,141.502 478.681,141.735 C479.624,141.969 480.2,142.924 479.967,143.867 C479.899,144.142 479.828,144.419 479.753,144.696 C479.542,145.482 478.831,146 478.054,146 Z" />
            <path d="M479.1,140.727 C479.026,140.727 478.951,140.723 478.875,140.713 C477.911,140.59 477.229,139.708 477.352,138.743 C478.38,130.69 476.69,122.847 472.328,115.432 C468.977,109.734 465.208,106.429 465.17,106.396 C465.137,106.367 465.105,106.338 465.074,106.306 C465.073,106.306 465.072,106.305 465.072,106.305 L465.072,106.305 C464.385,105.617 464.384,104.502 465.071,103.814 C465.744,103.142 466.825,103.126 467.515,103.77 C468.571,104.699 483.515,118.269 480.845,139.189 C480.731,140.078 479.973,140.727 479.1,140.727 Z" />
        </g>
        <g id="Black-S">
            <path d="M666.317,105.06 C667.669,108.833 668.192,114.068 667.852,116.976 C667.322,121.518 664.028,124.865 660.493,124.453 C657.717,124.129 655.619,121.581 655.103,118.302 C652.241,119.981 648.94,119.974 646.93,118.031 C644.37,115.559 644.872,110.889 648.049,107.601 C650.083,105.495 654.464,102.58 658.24,101.235 C654.297,100.522 649.5,98.357 647.152,96.609 C643.483,93.879 642.231,89.351 644.356,86.495 C646.025,84.255 649.28,83.71 652.378,84.904 C652.355,81.586 654.012,78.73 656.698,77.961 C660.12,76.981 663.914,79.75 665.172,84.145 C665.979,86.96 666.313,92.211 665.59,96.155 C668.179,93.095 672.453,90.025 675.141,88.865 C679.338,87.052 683.885,88.233 685.295,91.5 C686.402,94.067 685.246,97.156 682.663,99.242 C685.549,100.883 687.193,103.744 686.517,106.456 C685.654,109.908 681.359,111.81 676.923,110.702 C674.085,109.995 669.376,107.662 666.324,105.067 C666.322,105.064 666.319,105.062 666.317,105.06 Z" />
            <path d="M661.073,126.247 C660.813,126.247 660.552,126.232 660.289,126.201 C657.447,125.87 655.074,123.775 653.938,120.763 C650.889,121.794 647.764,121.286 645.706,119.297 C644.07,117.716 643.317,115.457 643.588,112.934 C643.841,110.577 644.976,108.248 646.783,106.378 C648.143,104.97 650.528,103.159 653.201,101.647 C650.319,100.59 647.671,99.19 646.1,98.021 C641.659,94.716 640.243,89.074 642.944,85.444 C644.653,83.149 647.655,82.142 650.829,82.664 C651.461,79.509 653.463,77.057 656.213,76.269 C658.401,75.642 660.735,76.12 662.784,77.615 C664.699,79.013 666.148,81.16 666.864,83.661 C667.404,85.543 667.779,88.515 667.752,91.585 C670.108,89.618 672.645,88.025 674.444,87.249 C676.831,86.218 679.41,85.978 681.706,86.573 C684.161,87.211 686.009,88.713 686.911,90.802 C688.045,93.43 687.417,96.533 685.377,99.021 C687.793,101.147 688.916,104.107 688.225,106.882 C687.128,111.271 681.867,113.75 676.497,112.41 C674.598,111.937 671.836,110.776 669.191,109.217 C669.716,112.243 669.827,115.236 669.6,117.18 C668.996,122.356 665.258,126.246 661.073,126.247 Z M655.103,116.542 C655.36,116.542 655.617,116.598 655.856,116.711 C656.382,116.96 656.751,117.453 656.842,118.028 C657.247,120.603 658.796,122.482 660.697,122.704 C663.215,122.998 665.693,120.281 666.103,116.772 C666.404,114.201 665.937,109.219 664.659,105.654 C664.331,104.739 664.807,103.731 665.723,103.403 C666.357,103.176 667.037,103.335 667.503,103.76 C670.387,106.196 674.85,108.371 677.349,108.994 C680.777,109.85 684.193,108.492 684.809,106.03 C685.271,104.174 684.059,102.061 681.793,100.773 C681.287,100.485 680.956,99.965 680.909,99.385 C680.861,98.805 681.104,98.239 681.557,97.873 C683.584,96.236 684.437,93.955 683.679,92.198 C683.217,91.127 682.202,90.34 680.821,89.981 C679.28,89.581 677.511,89.759 675.839,90.481 C673.459,91.508 669.377,94.404 666.933,97.292 C666.418,97.9 665.558,98.087 664.837,97.746 C664.115,97.405 663.714,96.621 663.858,95.837 C664.541,92.114 664.193,87.121 663.48,84.63 C662.979,82.879 661.994,81.397 660.709,80.459 C659.557,79.618 658.304,79.332 657.183,79.653 C655.344,80.18 654.12,82.285 654.138,84.892 C654.142,85.474 653.858,86.021 653.379,86.352 C652.9,86.683 652.289,86.756 651.745,86.547 C649.313,85.61 646.911,86.012 645.768,87.547 C644.253,89.583 645.367,93.087 648.203,95.196 C650.281,96.743 654.829,98.829 658.553,99.503 C659.338,99.644 659.929,100.296 659.995,101.091 C660.06,101.886 659.582,102.625 658.831,102.893 C655.264,104.164 651.115,106.961 649.316,108.823 C648.049,110.134 647.258,111.727 647.089,113.31 C646.937,114.728 647.314,115.955 648.153,116.764 C649.529,118.095 651.964,118.103 654.212,116.784 C654.486,116.623 654.794,116.542 655.103,116.542 Z" />
            <path d="M678.054,146 C677.903,146 677.749,145.98 677.596,145.939 C676.657,145.687 676.1,144.721 676.353,143.782 C676.421,143.527 676.487,143.274 676.549,143.021 C676.783,142.077 677.737,141.502 678.681,141.735 C679.624,141.969 680.2,142.924 679.967,143.867 C679.899,144.142 679.828,144.419 679.753,144.696 C679.542,145.482 678.831,146 678.054,146 Z" />
            <path d="M679.1,140.727 C679.026,140.727 678.951,140.723 678.875,140.713 C677.911,140.59 677.229,139.708 677.352,138.743 C678.38,130.69 676.69,122.847 672.328,115.432 C668.977,109.734 665.208,106.429 665.17,106.396 C665.137,106.367 665.105,106.338 665.074,106.306 C665.073,106.306 665.072,106.305 665.072,106.305 L665.072,106.305 C664.385,105.617 664.384,104.502 665.071,103.814 C665.744,103.142 666.825,103.126 667.515,103.77 C668.571,104.699 683.515,118.269 680.845,139.189 C680.731,140.078 679.973,140.727 679.1,140.727 Z" />
        </g>
    </g>
</svg>