<?xml version="1.0" encoding="UTF-8"?>
<svg height="600" width="800" xmlns="http://www.w3.org/2000/svg" xmlns:xlink="http://www.w3.org/1999/xlink">
    <g id="Notes" font-family="'LucidaGrande', 'Lucida Grande', sans-serif" font-size="13">
        <rect fill="white" height="600.0" width="800.0" x="0.0" y="0.0" />
        <g font-size="13">
            <text x="18.0" y="176.0">Small</text>
            <text x="18.0" y="376.0">Medium</text>
            <text x="18.0" y="576.0">Large</text>
        </g>
        <g font-size="9">
            <text x="250.0" y="30.0">Ultralight</text>
            <text x="450.0" y="30.0">Regular</text>
            <text x="650.0" y="30.0">Black</text>
            <text id="template-version" fill="#505050" text-anchor="end" x="785.0" y="575.0">Template v.3.0</text>
            <a href="https://wangchujiang.com/#/app">
                <text fill="#505050" text-anchor="end" x="785.0" y="590.0">https://wangchujiang.com/#/app</text>
            </a>
        </g>
    </g>
    <g id="Guides" stroke="rgb(39, 170, 225)" stroke-width="0.5">
        <path id="Capline-S" d="M18,76 l800,0" />
        <path id="H-reference" d="M85,145.755 L87.685,145.755 L113.369,79.287 L114.052,79.287 L114.052,76 L112.148,76 L85,145.755 Z M95.693,121.536 L130.996,121.536 L130.263,119.313 L96.474,119.313 L95.693,121.536 Z M139.15,145.755 L141.787,145.755 L114.638,76 L113.466,76 L113.466,79.287 L139.15,145.755 Z" stroke="none" />
        <path id="Baseline-S" d="M18,146 l800,0" />
        <path id="left-margin-Ultralight-S" d="M211,56 l0,110" />
        <path id="right-margin-Ultralight-S" d="M319,56 l0,110" />
        <path id="left-margin-Regular-S" d="M411,56 l0,110" />
        <path id="right-margin-Regular-S" d="M519,56 l0,110" />
        <path id="left-margin-Black-S" d="M611,56 l0,110" />
        <path id="right-margin-Black-S" d="M719,56 l0,110" />
        <path id="Capline-M" d="M18,276 l800,0" />
        <path id="Baseline-M" d="M18,346 l800,0" />
        <path id="Capline-L" d="M18,476 l800,0" />
        <path id="Baseline-L" d="M18,546 l800,0" />
    </g>
    <g id="Symbols">
        <g id="Ultralight-S">
            <path d="M261.779,79.618 C260.23,79.033 254.409,77.048 247.57,79.445 C240.888,81.788 237.594,86.786 236.715,88.224 C235.657,88.489 228.74,90.341 225.111,97.366 C221.746,103.88 223.669,110.077 224.043,111.207 C220.351,115.907 219.992,122.398 223.112,127.329 C225.993,131.882 231.363,134.351 236.811,133.623 C237.364,134.549 241.216,140.748 249.02,142.06 C255.394,143.132 260.223,140.24 261.402,139.487 C262.469,140.488 267.78,145.258 275.872,145.067 C282.742,144.905 287.329,141.27 288.641,140.149 C289.177,140.192 297.261,140.688 302.284,134.028 C307.185,127.532 304.732,120.109 304.53,119.531 C305.196,118.704 310.711,111.621 308.466,102.703 C306.582,95.219 300.003,89.49 291.856,88.32 C290.894,86.603 287.55,81.142 280.621,78.411 C271.307,74.739 263.025,78.958 261.78,79.619 Z" />
        </g>
        <g id="Regular-S">
            <path d="M461.779,79.618 C460.23,79.033 454.409,77.048 447.57,79.445 C440.888,81.788 437.594,86.786 436.715,88.224 C435.657,88.489 428.74,90.341 425.111,97.366 C421.746,103.88 423.669,110.077 424.043,111.207 C420.351,115.907 419.992,122.398 423.112,127.329 C425.993,131.882 431.363,134.351 436.811,133.623 C437.364,134.549 441.216,140.748 449.02,142.06 C455.394,143.132 460.223,140.24 461.402,139.487 C462.469,140.488 467.78,145.258 475.872,145.067 C482.742,144.905 487.329,141.27 488.641,140.149 C489.177,140.192 497.261,140.688 502.284,134.028 C507.185,127.532 504.732,120.109 504.53,119.531 C505.196,118.704 510.711,111.621 508.466,102.703 C506.582,95.219 500.003,89.49 491.856,88.32 C490.894,86.603 487.55,81.142 480.621,78.411 C471.307,74.739 463.025,78.958 461.78,79.619 Z" />
        </g>
        <g id="Black-S">
            <path d="M661.779,79.618 C660.23,79.033 654.409,77.048 647.57,79.445 C640.888,81.788 637.594,86.786 636.715,88.224 C635.657,88.489 628.74,90.341 625.111,97.366 C621.746,103.88 623.669,110.077 624.043,111.207 C620.351,115.907 619.992,122.398 623.112,127.329 C625.993,131.882 631.363,134.351 636.811,133.623 C637.364,134.549 641.216,140.748 649.02,142.06 C655.394,143.132 660.223,140.24 661.402,139.487 C662.469,140.488 667.78,145.258 675.872,145.067 C682.742,144.905 687.329,141.27 688.641,140.149 C689.177,140.192 697.261,140.688 702.284,134.028 C707.185,127.532 704.732,120.109 704.53,119.531 C705.196,118.704 710.711,111.621 708.466,102.703 C706.582,95.219 700.003,89.49 691.856,88.32 C690.894,86.603 687.55,81.142 680.621,78.411 C671.307,74.739 663.024,78.958 661.78,79.619 Z" />
        </g>
    </g>
</svg>