<?xml version="1.0" encoding="UTF-8"?>
<svg height="600" width="800" xmlns="http://www.w3.org/2000/svg" xmlns:xlink="http://www.w3.org/1999/xlink">
    <g id="Notes" font-family="'LucidaGrande', 'Lucida Grande', sans-serif" font-size="13">
        <rect fill="white" height="600.0" width="800.0" x="0.0" y="0.0" />
        <g font-size="13">
            <text x="18.0" y="176.0">Small</text>
            <text x="18.0" y="376.0">Medium</text>
            <text x="18.0" y="576.0">Large</text>
        </g>
        <g font-size="9">
            <text x="250.0" y="30.0">Ultralight</text>
            <text x="450.0" y="30.0">Regular</text>
            <text x="650.0" y="30.0">Black</text>
            <text id="template-version" fill="#505050" text-anchor="end" x="785.0" y="575.0">Template v.3.0</text>
            <a href="https://wangchujiang.com/#/app">
                <text fill="#505050" text-anchor="end" x="785.0" y="590.0">https://wangchujiang.com/#/app</text>
            </a>
        </g>
    </g>
    <g id="Guides" stroke="rgb(39, 170, 225)" stroke-width="0.5">
        <path id="Capline-S" d="M18,76 l800,0" />
        <path id="H-reference" d="M85,145.755 L87.685,145.755 L113.369,79.287 L114.052,79.287 L114.052,76 L112.148,76 L85,145.755 Z M95.693,121.536 L130.996,121.536 L130.263,119.313 L96.474,119.313 L95.693,121.536 Z M139.15,145.755 L141.787,145.755 L114.638,76 L113.466,76 L113.466,79.287 L139.15,145.755 Z" stroke="none" />
        <path id="Baseline-S" d="M18,146 l800,0" />
        <path id="left-margin-Ultralight-S" d="M221,56 l0,110" />
        <path id="right-margin-Ultralight-S" d="M309,56 l0,110" />
        <path id="left-margin-Regular-S" d="M421,56 l0,110" />
        <path id="right-margin-Regular-S" d="M509,56 l0,110" />
        <path id="left-margin-Black-S" d="M621,56 l0,110" />
        <path id="right-margin-Black-S" d="M709,56 l0,110" />
        <path id="Capline-M" d="M18,276 l800,0" />
        <path id="Baseline-M" d="M18,346 l800,0" />
        <path id="Capline-L" d="M18,476 l800,0" />
        <path id="Baseline-L" d="M18,546 l800,0" />
    </g>
    <g id="Symbols">
        <g id="Ultralight-S">
            <path d="M282.156,122.669 C282.105,127.685 281.926,135.486 277.772,140.821 C274.631,144.852 270.072,146 265,146 C259.928,146 255.369,144.852 252.228,140.821 C248.072,135.488 247.895,127.687 247.844,122.669 C247.613,100.158 260.503,81.889 265,76 C269.497,81.889 282.385,100.158 282.156,122.669 Z" />
        </g>
        <g id="Regular-S">
            <path d="M482.156,122.669 C482.105,127.685 481.926,135.486 477.772,140.821 C474.631,144.852 470.072,146 465,146 C459.928,146 455.369,144.852 452.228,140.821 C448.072,135.488 447.895,127.687 447.844,122.669 C447.613,100.158 460.503,81.889 465,76 C469.497,81.889 482.385,100.158 482.156,122.669 Z" />
        </g>
        <g id="Black-S">
            <path d="M682.156,122.669 C682.105,127.685 681.926,135.486 677.772,140.821 C674.631,144.852 670.072,146 665,146 C659.928,146 655.369,144.852 652.228,140.821 C648.072,135.488 647.895,127.687 647.844,122.669 C647.613,100.158 660.503,81.889 665,76 C669.497,81.889 682.385,100.158 682.156,122.669 Z" />
        </g>
    </g>
</svg>