<?xml version="1.0" encoding="UTF-8"?>
<svg height="600" width="800" xmlns="http://www.w3.org/2000/svg" xmlns:xlink="http://www.w3.org/1999/xlink">
    <g id="Notes" font-family="'LucidaGrande', 'Lucida Grande', sans-serif" font-size="13">
        <rect fill="white" height="600.0" width="800.0" x="0.0" y="0.0" />
        <g font-size="13">
            <text x="18.0" y="176.0">Small</text>
            <text x="18.0" y="376.0">Medium</text>
            <text x="18.0" y="576.0">Large</text>
        </g>
        <g font-size="9">
            <text x="250.0" y="30.0">Ultralight</text>
            <text x="450.0" y="30.0">Regular</text>
            <text x="650.0" y="30.0">Black</text>
            <text id="template-version" fill="#505050" text-anchor="end" x="785.0" y="575.0">Template v.3.0</text>
            <a href="https://wangchujiang.com/#/app">
                <text fill="#505050" text-anchor="end" x="785.0" y="590.0">https://wangchujiang.com/#/app</text>
            </a>
        </g>
    </g>
    <g id="Guides" stroke="rgb(39, 170, 225)" stroke-width="0.5">
        <path id="Capline-S" d="M18,76 l800,0" />
        <path id="H-reference" d="M85,145.755 L87.685,145.755 L113.369,79.287 L114.052,79.287 L114.052,76 L112.148,76 L85,145.755 Z M95.693,121.536 L130.996,121.536 L130.263,119.313 L96.474,119.313 L95.693,121.536 Z M139.15,145.755 L141.787,145.755 L114.638,76 L113.466,76 L113.466,79.287 L139.15,145.755 Z" stroke="none" />
        <path id="Baseline-S" d="M18,146 l800,0" />
        <path id="left-margin-Ultralight-S" d="M221,56 l0,110" />
        <path id="right-margin-Ultralight-S" d="M309,56 l0,110" />
        <path id="left-margin-Regular-S" d="M421,56 l0,110" />
        <path id="right-margin-Regular-S" d="M509,56 l0,110" />
        <path id="left-margin-Black-S" d="M621,56 l0,110" />
        <path id="right-margin-Black-S" d="M709,56 l0,110" />
        <path id="Capline-M" d="M18,276 l800,0" />
        <path id="Baseline-M" d="M18,346 l800,0" />
        <path id="Capline-L" d="M18,476 l800,0" />
        <path id="Baseline-L" d="M18,546 l800,0" />
    </g>
    <g id="Symbols">
        <g id="Ultralight-S">
            <path d="M265,76 C260.168,76 256.25,79.918 256.25,84.75 L256.25,84.907 L256.114,84.829 C251.929,82.412 246.578,83.846 244.161,88.031 C241.745,92.216 243.179,97.568 247.364,99.984 L247.5,100.062 L247.364,100.141 C243.179,102.557 241.745,107.909 244.161,112.094 C246.578,116.279 251.929,117.713 256.114,115.296 L256.25,115.218 L256.25,115.375 C256.25,120.208 260.168,124.125 265,124.125 C269.832,124.125 273.75,120.208 273.75,115.375 L273.75,115.218 L273.886,115.296 C278.071,117.713 283.423,116.279 285.839,112.094 C288.255,107.909 286.821,102.557 282.636,100.141 L282.5,100.062 L282.636,99.984 C286.821,97.568 288.255,92.216 285.839,88.031 C283.423,83.846 278.071,82.412 273.886,84.829 L273.75,84.907 L273.75,84.75 C273.75,79.918 269.832,76 265,76 Z M265,106.625 C261.375,106.625 258.437,103.687 258.437,100.062 C258.437,96.438 261.375,93.5 265,93.5 C268.624,93.5 271.562,96.438 271.562,100.062 C271.562,103.687 268.624,106.625 265,106.625 Z" />
            <path d="M260.625,146 L256.25,146 C244.169,146 234.375,136.206 234.375,124.125 L234.375,119.75 L238.75,119.75 C250.831,119.75 260.625,129.544 260.625,141.625 L260.625,146 Z" />
            <path d="M273.75,146 L269.375,146 L269.375,141.625 C269.375,129.544 279.169,119.75 291.25,119.75 L295.625,119.75 L295.625,124.125 C295.625,136.206 285.831,146 273.75,146 Z" />
        </g>
        <g id="Regular-S">
            <path d="M465,76 C460.168,76 456.25,79.918 456.25,84.75 L456.25,84.907 L456.114,84.829 C451.929,82.412 446.578,83.846 444.161,88.031 C441.745,92.216 443.179,97.568 447.364,99.984 L447.5,100.062 L447.364,100.141 C443.179,102.557 441.745,107.909 444.161,112.094 C446.578,116.279 451.929,117.713 456.114,115.296 L456.25,115.218 L456.25,115.375 C456.25,120.208 460.168,124.125 465,124.125 C469.832,124.125 473.75,120.208 473.75,115.375 L473.75,115.218 L473.886,115.296 C478.071,117.713 483.423,116.279 485.839,112.094 C488.255,107.909 486.821,102.557 482.636,100.141 L482.5,100.062 L482.636,99.984 C486.821,97.568 488.255,92.216 485.839,88.031 C483.423,83.846 478.071,82.412 473.886,84.829 L473.75,84.907 L473.75,84.75 C473.75,79.918 469.832,76 465,76 Z M465,106.625 C461.375,106.625 458.437,103.687 458.437,100.062 C458.437,96.438 461.375,93.5 465,93.5 C468.624,93.5 471.562,96.438 471.562,100.062 C471.562,103.687 468.624,106.625 465,106.625 Z" />
            <path d="M460.625,146 L456.25,146 C444.169,146 434.375,136.206 434.375,124.125 L434.375,119.75 L438.75,119.75 C450.831,119.75 460.625,129.544 460.625,141.625 L460.625,146 Z" />
            <path d="M473.75,146 L469.375,146 L469.375,141.625 C469.375,129.544 479.169,119.75 491.25,119.75 L495.625,119.75 L495.625,124.125 C495.625,136.206 485.831,146 473.75,146 Z" />
        </g>
        <g id="Black-S">
            <path d="M665,76 C660.167,76 656.25,79.918 656.25,84.75 L656.25,84.907 L656.114,84.829 C651.929,82.412 646.578,83.846 644.161,88.031 C641.745,92.216 643.179,97.568 647.364,99.984 L647.5,100.062 L647.364,100.141 C643.179,102.557 641.745,107.909 644.161,112.094 C646.578,116.279 651.929,117.713 656.114,115.296 L656.25,115.218 L656.25,115.375 C656.25,120.208 660.167,124.125 665,124.125 C669.833,124.125 673.75,120.208 673.75,115.375 L673.75,115.218 L673.886,115.296 C678.071,117.713 683.423,116.279 685.839,112.094 C688.255,107.909 686.821,102.557 682.636,100.141 L682.5,100.062 L682.636,99.984 C686.821,97.568 688.255,92.216 685.839,88.031 C683.423,83.846 678.071,82.412 673.886,84.829 L673.75,84.907 L673.75,84.75 C673.75,79.918 669.833,76 665,76 Z M665,106.625 C661.375,106.625 658.437,103.687 658.437,100.062 C658.437,96.438 661.375,93.5 665,93.5 C668.624,93.5 671.562,96.438 671.562,100.062 C671.562,103.687 668.624,106.625 665,106.625 Z" />
            <path d="M660.625,146 L656.25,146 C644.169,146 634.375,136.206 634.375,124.125 L634.375,119.75 L638.75,119.75 C650.831,119.75 660.625,129.544 660.625,141.625 L660.625,146 Z" />
            <path d="M673.75,146 L669.375,146 L669.375,141.625 C669.375,129.544 679.169,119.75 691.25,119.75 L695.625,119.75 L695.625,124.125 C695.625,136.206 685.831,146 673.75,146 Z" />
        </g>
    </g>
</svg>