<?xml version="1.0" encoding="UTF-8"?>
<svg height="600" width="800" xmlns="http://www.w3.org/2000/svg" xmlns:xlink="http://www.w3.org/1999/xlink">
    <g id="Notes" font-family="'LucidaGrande', 'Lucida Grande', sans-serif" font-size="13">
        <rect fill="white" height="600.0" width="800.0" x="0.0" y="0.0" />
        <g font-size="13">
            <text x="18.0" y="176.0">Small</text>
            <text x="18.0" y="376.0">Medium</text>
            <text x="18.0" y="576.0">Large</text>
        </g>
        <g font-size="9">
            <text x="250.0" y="30.0">Ultralight</text>
            <text x="450.0" y="30.0">Regular</text>
            <text x="650.0" y="30.0">Black</text>
            <text id="template-version" fill="#505050" text-anchor="end" x="785.0" y="575.0">Template v.3.0</text>
            <a href="https://wangchujiang.com/#/app">
                <text fill="#505050" text-anchor="end" x="785.0" y="590.0">https://wangchujiang.com/#/app</text>
            </a>
        </g>
    </g>
    <g id="Guides" stroke="rgb(39, 170, 225)" stroke-width="0.5">
        <path id="Capline-S" d="M18,76 l800,0" />
        <path id="H-reference" d="M85,145.755 L87.685,145.755 L113.369,79.287 L114.052,79.287 L114.052,76 L112.148,76 L85,145.755 Z M95.693,121.536 L130.996,121.536 L130.263,119.313 L96.474,119.313 L95.693,121.536 Z M139.15,145.755 L141.787,145.755 L114.638,76 L113.466,76 L113.466,79.287 L139.15,145.755 Z" stroke="none" />
        <path id="Baseline-S" d="M18,146 l800,0" />
        <path id="left-margin-Ultralight-S" d="M216.111,56 l0,110" />
        <path id="right-margin-Ultralight-S" d="M313.889,56 l0,110" />
        <path id="left-margin-Regular-S" d="M416.111,56 l0,110" />
        <path id="right-margin-Regular-S" d="M513.889,56 l0,110" />
        <path id="left-margin-Black-S" d="M616.111,56 l0,110" />
        <path id="right-margin-Black-S" d="M713.889,56 l0,110" />
        <path id="Capline-M" d="M18,276 l800,0" />
        <path id="Baseline-M" d="M18,346 l800,0" />
        <path id="Capline-L" d="M18,476 l800,0" />
        <path id="Baseline-L" d="M18,546 l800,0" />
    </g>
    <g id="Symbols">
        <g id="Ultralight-S">
            <path d="M303.889,91.556 L303.889,101.278 C303.889,107.982 301.226,114.411 296.485,119.152 C291.745,123.892 285.315,126.556 278.611,126.556 L268.889,126.556 L268.889,146 L261.111,146 L261.111,118.778 L261.185,114.889 C262.201,101.721 273.182,91.555 286.389,91.556 Z M241.667,76 C253.387,75.996 263.794,83.494 267.501,94.612 C261.489,99.708 257.803,107.025 257.284,114.889 L253.333,114.889 C246.114,114.889 239.189,112.021 234.084,106.916 C228.979,101.811 226.111,94.886 226.111,87.667 L226.111,76 Z" />
        </g>
        <g id="Regular-S">
            <path d="M503.889,91.556 L503.889,101.278 C503.889,107.982 501.226,114.411 496.485,119.152 C491.745,123.892 485.315,126.556 478.611,126.556 L468.889,126.556 L468.889,146 L461.111,146 L461.111,118.778 L461.185,114.889 C462.201,101.721 473.182,91.555 486.389,91.556 Z M441.667,76 C453.387,75.996 463.794,83.494 467.501,94.612 C461.489,99.708 457.803,107.025 457.284,114.889 L453.333,114.889 C446.114,114.889 439.189,112.021 434.084,106.916 C428.979,101.811 426.111,94.886 426.111,87.667 L426.111,76 Z" />
        </g>
        <g id="Black-S">
            <path d="M703.889,91.556 L703.889,101.278 C703.889,107.982 701.226,114.411 696.485,119.152 C691.745,123.892 685.315,126.556 678.611,126.556 L668.889,126.556 L668.889,146 L661.111,146 L661.111,118.778 L661.185,114.889 C662.201,101.721 673.182,91.555 686.389,91.556 Z M641.667,76 C653.387,75.996 663.794,83.494 667.501,94.612 C661.489,99.708 657.803,107.025 657.284,114.889 L653.333,114.889 C646.114,114.889 639.19,112.021 634.084,106.916 C628.979,101.811 626.111,94.886 626.111,87.667 L626.111,76 Z" />
        </g>
    </g>
</svg>