<?xml version="1.0" encoding="UTF-8"?>
<svg height="600" width="800" xmlns="http://www.w3.org/2000/svg" xmlns:xlink="http://www.w3.org/1999/xlink">
    <g id="Notes" font-family="'LucidaGrande', 'Lucida Grande', sans-serif" font-size="13">
        <rect fill="white" height="600.0" width="800.0" x="0.0" y="0.0" />
        <g font-size="13">
            <text x="18.0" y="176.0">Small</text>
            <text x="18.0" y="376.0">Medium</text>
            <text x="18.0" y="576.0">Large</text>
        </g>
        <g font-size="9">
            <text x="250.0" y="30.0">Ultralight</text>
            <text x="450.0" y="30.0">Regular</text>
            <text x="650.0" y="30.0">Black</text>
            <text id="template-version" fill="#505050" text-anchor="end" x="785.0" y="575.0">Template v.3.0</text>
            <a href="https://wangchujiang.com/#/app">
                <text fill="#505050" text-anchor="end" x="785.0" y="590.0">https://wangchujiang.com/#/app</text>
            </a>
        </g>
    </g>
    <g id="Guides" stroke="rgb(39, 170, 225)" stroke-width="0.5">
        <path id="Capline-S" d="M18,76 l800,0" />
        <path id="H-reference" d="M85,145.755 L87.685,145.755 L113.369,79.287 L114.052,79.287 L114.052,76 L112.148,76 L85,145.755 Z M95.693,121.536 L130.996,121.536 L130.263,119.313 L96.474,119.313 L95.693,121.536 Z M139.15,145.755 L141.787,145.755 L114.638,76 L113.466,76 L113.466,79.287 L139.15,145.755 Z" stroke="none" />
        <path id="Baseline-S" d="M18,146 l800,0" />
        <path id="left-margin-Ultralight-S" d="M220,56 l0,110" />
        <path id="right-margin-Ultralight-S" d="M310,56 l0,110" />
        <path id="left-margin-Regular-S" d="M420,56 l0,110" />
        <path id="right-margin-Regular-S" d="M510,56 l0,110" />
        <path id="left-margin-Black-S" d="M620,56 l0,110" />
        <path id="right-margin-Black-S" d="M710,56 l0,110" />
        <path id="Capline-M" d="M18,276 l800,0" />
        <path id="Baseline-M" d="M18,346 l800,0" />
        <path id="Capline-L" d="M18,476 l800,0" />
        <path id="Baseline-L" d="M18,546 l800,0" />
    </g>
    <g id="Symbols">
        <g id="Ultralight-S">
            <path d="M248.144,79.364 C248.342,78.1 249.178,77.028 250.355,76.528 C251.533,76.027 252.885,76.17 253.932,76.904 L262.591,82.981 C263.889,83.892 265.623,83.878 266.904,82.944 L275.449,76.711 C276.482,75.958 277.832,75.791 279.018,76.269 C280.204,76.748 281.06,77.804 281.281,79.064 L283.104,89.483 C283.377,91.047 284.615,92.262 286.183,92.507 L296.632,94.141 C297.897,94.338 298.971,95.175 299.471,96.353 C299.972,97.532 299.829,98.885 299.092,99.932 L293.016,108.588 C292.104,109.885 292.119,111.619 293.053,112.901 L299.289,121.449 C300.042,122.483 300.209,123.832 299.731,125.018 C299.252,126.204 298.196,127.06 296.936,127.281 L286.517,129.104 C284.954,129.377 283.739,130.613 283.493,132.18 L281.859,142.633 C281.662,143.897 280.825,144.971 279.647,145.472 C278.468,145.972 277.115,145.829 276.068,145.093 L267.412,139.016 C266.115,138.104 264.381,138.119 263.099,139.053 L254.551,145.289 C253.517,146.043 252.167,146.21 250.98,145.73 C249.794,145.251 248.939,144.193 248.719,142.933 L246.896,132.513 C246.623,130.951 245.387,129.736 243.82,129.49 L233.368,127.859 C232.103,127.662 231.029,126.826 230.528,125.647 C230.028,124.469 230.171,123.116 230.907,122.068 L236.984,113.409 C237.896,112.111 237.881,110.377 236.947,109.096 L230.711,100.551 C229.957,99.517 229.79,98.167 230.27,96.981 C230.749,95.794 231.807,94.939 233.067,94.719 L243.487,92.892 C245.047,92.618 246.261,91.382 246.507,89.817 Z M264.985,129.519 C275.217,129.519 283.512,121.225 283.512,110.993 C283.512,100.761 275.217,92.466 264.985,92.466 C254.753,92.466 246.458,100.761 246.458,110.993 C246.458,121.225 254.753,129.519 264.985,129.519" />
            <path d="M279.806,110.993 C279.806,119.178 273.171,125.814 264.985,125.814 C256.799,125.814 250.164,119.178 250.164,110.993 C250.164,102.807 256.799,96.172 264.985,96.172 C273.171,96.172 279.806,102.807 279.806,110.993" />
        </g>
        <g id="Regular-S">
            <path d="M448.144,79.364 C448.342,78.1 449.178,77.028 450.355,76.528 C451.533,76.027 452.885,76.17 453.932,76.904 L462.591,82.981 C463.889,83.892 465.623,83.878 466.904,82.944 L475.449,76.711 C476.482,75.958 477.832,75.791 479.018,76.269 C480.204,76.748 481.06,77.804 481.281,79.064 L483.104,89.483 C483.377,91.047 484.615,92.262 486.183,92.507 L496.632,94.141 C497.897,94.338 498.971,95.175 499.471,96.353 C499.972,97.532 499.829,98.885 499.092,99.932 L493.016,108.588 C492.104,109.885 492.119,111.619 493.053,112.901 L499.289,121.449 C500.042,122.483 500.209,123.832 499.731,125.018 C499.252,126.204 498.196,127.06 496.936,127.281 L486.517,129.104 C484.954,129.377 483.739,130.613 483.493,132.18 L481.859,142.633 C481.662,143.897 480.825,144.971 479.647,145.472 C478.468,145.972 477.115,145.829 476.068,145.093 L467.412,139.016 C466.115,138.104 464.381,138.119 463.099,139.053 L454.551,145.289 C453.517,146.043 452.167,146.21 450.98,145.73 C449.794,145.251 448.939,144.193 448.719,142.933 L446.896,132.513 C446.623,130.951 445.387,129.736 443.82,129.49 L433.368,127.859 C432.103,127.662 431.029,126.826 430.528,125.647 C430.028,124.469 430.171,123.116 430.907,122.068 L436.984,113.409 C437.896,112.111 437.881,110.377 436.947,109.096 L430.711,100.551 C429.957,99.517 429.79,98.167 430.27,96.981 C430.749,95.794 431.807,94.939 433.067,94.719 L443.487,92.892 C445.047,92.618 446.261,91.382 446.507,89.817 Z M464.985,129.519 C475.217,129.519 483.512,121.225 483.512,110.993 C483.512,100.761 475.217,92.466 464.985,92.466 C454.753,92.466 446.458,100.761 446.458,110.993 C446.458,121.225 454.753,129.519 464.985,129.519" />
            <path d="M479.806,110.993 C479.806,119.178 473.171,125.814 464.985,125.814 C456.799,125.814 450.164,119.178 450.164,110.993 C450.164,102.807 456.799,96.172 464.985,96.172 C473.171,96.172 479.806,102.807 479.806,110.993" />
        </g>
        <g id="Black-S">
            <path d="M648.144,79.364 C648.342,78.1 649.178,77.028 650.355,76.528 C651.533,76.027 652.885,76.17 653.932,76.904 L662.591,82.981 C663.889,83.892 665.623,83.878 666.904,82.944 L675.449,76.711 C676.482,75.958 677.832,75.791 679.018,76.269 C680.204,76.748 681.06,77.804 681.281,79.064 L683.104,89.483 C683.377,91.047 684.615,92.262 686.183,92.507 L696.632,94.141 C697.897,94.338 698.971,95.175 699.471,96.353 C699.972,97.532 699.829,98.885 699.092,99.932 L693.016,108.588 C692.104,109.885 692.119,111.619 693.053,112.901 L699.289,121.449 C700.042,122.483 700.209,123.832 699.731,125.018 C699.252,126.204 698.196,127.06 696.936,127.281 L686.517,129.104 C684.955,129.377 683.739,130.613 683.493,132.18 L681.859,142.633 C681.662,143.897 680.825,144.971 679.647,145.472 C678.468,145.972 677.115,145.829 676.068,145.093 L667.412,139.016 C666.115,138.104 664.381,138.119 663.099,139.053 L654.551,145.289 C653.517,146.043 652.167,146.21 650.98,145.73 C649.794,145.251 648.939,144.193 648.719,142.933 L646.896,132.513 C646.623,130.951 645.387,129.736 643.82,129.49 L633.368,127.859 C632.103,127.662 631.029,126.826 630.529,125.647 C630.028,124.469 630.171,123.116 630.907,122.068 L636.984,113.409 C637.896,112.111 637.881,110.377 636.947,109.096 L630.711,100.551 C629.957,99.517 629.791,98.167 630.27,96.981 C630.749,95.794 631.807,94.939 633.067,94.719 L643.487,92.892 C645.047,92.618 646.261,91.382 646.507,89.817 Z M664.985,129.519 C675.217,129.519 683.512,121.225 683.512,110.993 C683.512,100.761 675.217,92.466 664.985,92.466 C654.753,92.466 646.458,100.761 646.458,110.993 C646.458,121.225 654.753,129.519 664.985,129.519" />
            <path d="M679.806,110.993 C679.806,119.178 673.171,125.814 664.985,125.814 C656.799,125.814 650.164,119.178 650.164,110.993 C650.164,102.807 656.799,96.172 664.985,96.172 C673.171,96.172 679.806,102.807 679.806,110.993" />
        </g>
    </g>
</svg>