<?xml version="1.0" encoding="UTF-8"?>
<svg height="600" width="800" xmlns="http://www.w3.org/2000/svg" xmlns:xlink="http://www.w3.org/1999/xlink">
    <g id="Notes" font-family="'LucidaGrande', 'Lucida Grande', sans-serif" font-size="13">
        <rect fill="white" height="600.0" width="800.0" x="0.0" y="0.0" />
        <g font-size="13">
            <text x="18.0" y="176.0">Small</text>
            <text x="18.0" y="376.0">Medium</text>
            <text x="18.0" y="576.0">Large</text>
        </g>
        <g font-size="9">
            <text x="250.0" y="30.0">Ultralight</text>
            <text x="450.0" y="30.0">Regular</text>
            <text x="650.0" y="30.0">Black</text>
            <text id="template-version" fill="#505050" text-anchor="end" x="785.0" y="575.0">Template v.3.0</text>
            <a href="https://wangchujiang.com/#/app">
                <text fill="#505050" text-anchor="end" x="785.0" y="590.0">https://wangchujiang.com/#/app</text>
            </a>
        </g>
    </g>
    <g id="Guides" stroke="rgb(39, 170, 225)" stroke-width="0.5">
        <path id="Capline-S" d="M18,76 l800,0" />
        <path id="H-reference" d="M85,145.755 L87.685,145.755 L113.369,79.287 L114.052,79.287 L114.052,76 L112.148,76 L85,145.755 Z M95.693,121.536 L130.996,121.536 L130.263,119.313 L96.474,119.313 L95.693,121.536 Z M139.15,145.755 L141.787,145.755 L114.638,76 L113.466,76 L113.466,79.287 L139.15,145.755 Z" stroke="none" />
        <path id="Baseline-S" d="M18,146 l800,0" />
        <path id="left-margin-Ultralight-S" d="M219.004,56 l0,110" />
        <path id="right-margin-Ultralight-S" d="M310.996,56 l0,110" />
        <path id="left-margin-Regular-S" d="M419.004,56 l0,110" />
        <path id="right-margin-Regular-S" d="M510.996,56 l0,110" />
        <path id="left-margin-Black-S" d="M619.004,56 l0,110" />
        <path id="right-margin-Black-S" d="M710.996,56 l0,110" />
        <path id="Capline-M" d="M18,276 l800,0" />
        <path id="Baseline-M" d="M18,346 l800,0" />
        <path id="Capline-L" d="M18,476 l800,0" />
        <path id="Baseline-L" d="M18,546 l800,0" />
    </g>
    <g id="Symbols">
        <g id="Ultralight-S">
            <path d="M278.171,92.017 C287.005,96.814 292.485,105.131 293.484,115.172 C293.579,116.135 293.427,117.953 293.69,118.807 C293.811,119.201 294.863,120.41 295.164,120.888 C298.448,126.1 300.712,132.042 300.996,138.266 C298.402,139.555 295.64,140.481 292.802,141.089 C289.325,141.833 286.159,141.935 282.606,141.85 C282.012,141.835 280.769,141.524 280.248,141.633 C279.905,141.706 277.634,143.127 276.951,143.434 C268.231,147.362 257.818,146.803 249.757,141.599 C244.476,142.227 239.332,141.847 234.246,140.317 C233.382,140.057 229.491,138.774 229.083,138.226 C228.917,138.003 229.056,136.898 229.097,136.511 C229.565,131.974 231.269,127.08 233.478,123.113 C234.006,122.165 236.254,119.218 236.425,118.664 C236.686,117.817 236.419,115.909 236.489,114.887 C237.006,107.42 241.336,99.842 247.081,95.188 C248.055,94.399 251.374,92.505 251.84,91.842 C252.467,90.951 253.068,89.179 253.663,88.117 C255.822,84.255 258.997,80.47 262.433,77.69 C262.898,77.314 264.606,75.932 265.095,76.003 C265.773,76.102 268.936,78.831 269.608,79.462 C273.278,82.906 276.232,87.376 278.172,92.017 Z M275.574,90.772 C274.009,87.762 272.131,84.872 269.819,82.379 C269.188,81.699 265.633,78.266 264.984,78.265 C264.578,78.265 261.901,80.639 261.427,81.097 C254.433,87.84 250.555,97.676 250.983,107.417 L254.467,106.14 C254.494,97.165 258.224,88.543 264.983,82.67 C267.25,84.596 269.198,86.934 270.781,89.452 L275.573,90.772 Z M268.04,88.924 C267.412,87.518 266.066,86.44 265.111,85.231 C264.818,85.168 262.599,87.8 262.298,88.227 C262.149,88.437 261.914,88.654 261.928,88.924 L268.04,88.924 Z M291.635,116.237 C290.955,101.333 278.177,89.931 263.273,90.768 C262.66,90.802 261.149,90.926 260.648,91.128 C259.729,91.495 258.886,94.281 258.376,95.183 C268.188,92.462 278.536,96.114 284.219,104.53 C285.916,107.043 286.948,109.758 287.734,112.677 L291.636,116.239 Z M248.993,134.303 C247.471,132.532 246.005,130.909 244.847,128.851 C239.471,119.303 241.571,107.543 249.481,100.152 L250.698,94.899 C238.661,102.685 234.678,118.442 242.004,130.985 C242.354,131.584 244.125,134.318 244.59,134.515 C244.996,134.687 248.81,134.483 248.993,134.303 Z M273.726,105.993 C273.693,105.309 273.772,104.609 273.733,103.925 C273.681,102.979 273.03,98.566 272.576,97.97 C272.308,97.616 270.568,97.229 270.033,97.101 C266.073,96.156 261.539,96.402 257.736,97.886 C257.283,99.699 256.845,101.643 256.67,103.505 C256.635,103.877 256.467,105.841 256.677,105.989 C262.271,104.801 268.131,104.796 273.726,105.993 Z M274.723,98.597 C277.01,109.092 273.996,119.946 266.488,127.565 C266.447,127.802 268.937,129.692 269.108,129.704 C269.317,129.716 270.564,128.331 270.815,128.046 C276.502,121.601 279.499,112.075 278.993,103.498 C278.931,102.467 278.919,101.377 278.135,100.657 C277.83,100.377 274.913,98.388 274.724,98.596 Z M280.833,103.292 L280.833,108.413 L285.241,110.759 C284.205,108.041 282.845,105.412 280.833,103.292 Z M249.135,103.434 C248.861,103.37 248.862,103.534 248.735,103.673 C247.686,104.824 246.42,106.944 245.744,108.362 C245.533,108.803 244.931,110.079 244.868,110.476 C244.838,110.671 244.874,110.751 245.08,110.688 C245.521,110.553 247.3,109.302 247.902,108.958 C248.275,108.743 248.715,108.516 249.134,108.413 L249.134,103.434 Z M243.734,115.313 C243.632,116.327 243.809,117.482 243.734,118.514 C244.882,117.653 245.929,116.673 247.101,115.838 C251.722,112.54 257.566,110.364 263.273,110.115 C266.602,109.97 269.935,110.332 273.158,111.118 L273.585,107.561 C267.924,106.373 261.799,106.221 256.183,107.715 C253.057,108.546 250.069,109.832 247.3,111.486 C246.723,111.83 244.556,113.15 244.239,113.543 C244.054,113.771 243.767,114.996 243.734,115.314 Z M299.005,137.128 C297.895,125.844 290.8,115.569 280.765,110.405 C280.563,110.448 279.925,113.768 280.044,113.96 C286.521,117.807 291.666,123.733 294.094,130.921 C294.347,131.672 295.1,134.004 295.062,134.663 C295.055,134.789 295.079,134.811 294.964,134.89 C294.569,135.165 292.155,135.693 291.521,135.826 C290.323,136.08 289.083,136.293 287.868,136.438 C287.432,136.491 286.877,136.35 286.478,136.469 C286.256,136.535 283.452,139.172 283.039,139.572 C282.9,139.707 282.771,139.758 282.825,139.996 C287.105,140.097 291.227,139.721 295.332,138.502 C296.584,138.131 297.807,137.642 299.005,137.129 Z M272.573,112.981 C267.654,111.614 262.314,111.625 257.391,112.977 C258.528,118.027 261.347,122.682 264.984,126.335 C267.942,123.409 270.413,119.635 271.843,115.704 C271.999,115.273 272.757,113.246 272.573,112.983 Z M255.528,113.68 C255.351,113.553 252.527,114.681 252.43,114.838 C252.13,115.318 253.255,118.107 253.519,118.753 C256.464,125.969 264.073,134.66 271.598,137.218 C271.767,137.275 271.955,137.388 272.127,137.405 C272.734,137.464 276.853,135.383 276.57,135.161 C266.426,132.448 258.201,123.796 255.528,113.681 Z M259.087,130.887 C258.288,129.655 257.202,128.637 256.326,127.463 C254.76,125.363 253.309,122.85 252.238,120.458 C251.579,118.986 251.069,117.455 250.481,115.953 C248.038,117.129 246.109,119.107 244.045,120.815 C244.588,124.54 246.196,128.068 248.572,130.957 C249.027,131.51 250.737,133.439 251.275,133.658 C251.847,133.892 253.455,133.306 254.106,133.089 C255.827,132.515 257.456,131.664 259.087,130.887 Z M270.885,130.889 C272.541,131.611 274.144,132.513 275.865,133.089 C276.515,133.307 278.124,133.893 278.697,133.658 C279.27,133.424 280.917,131.544 281.401,130.957 C283.093,128.894 284.421,126.537 285.245,123.993 C285.447,123.372 286.125,121.273 285.884,120.788 C283.841,119.063 281.899,117.03 279.416,115.953 C277.828,121.574 274.683,126.516 270.886,130.889 Z M234.94,134.856 C234.718,134.513 235.839,131.145 236.057,130.532 C236.372,129.644 237.78,126.908 237.836,126.355 C237.93,125.459 236.607,122.814 236.769,121.643 C236.08,122.265 235.588,123.238 235.133,124.059 C233.387,127.207 232.173,130.483 231.439,134.018 C231.339,134.493 230.788,136.977 231.031,137.165 C241.414,141.675 253.688,140.743 263.21,134.658 C263.213,134.276 260.906,132.522 260.461,132.19 C252.83,136.73 243.362,137.753 234.94,134.856 Z M252.833,140.992 C252.733,141.12 253.366,141.475 253.489,141.542 C265.253,147.837 280.956,142.535 287.717,131.448 C288.148,130.742 290.168,127.012 290.047,126.443 C289.983,126.144 287.801,122.931 287.587,122.926 C287.21,123.522 287.152,124.294 286.913,124.952 C282.987,135.764 272.241,142.282 260.763,140.238 C259.944,140.093 258.449,139.524 257.741,139.562 C256.433,139.633 254.288,140.915 252.833,140.993 Z M242.028,134.445 C240.809,132.688 239.706,130.854 238.83,128.898 C238.502,129.059 237.355,132.35 237.258,132.875 C237.217,133.096 237.107,133.401 237.255,133.603 C237.403,133.805 241.832,134.589 242.028,134.445 Z M291.351,128.898 C291.026,128.84 291.125,128.917 291.035,129.081 C290.611,129.849 290.286,130.741 289.813,131.556 C289.235,132.55 288.619,133.519 287.941,134.446 C289.635,134.414 291.274,133.94 292.917,133.593 L291.351,128.9 Z M269.32,138.147 L264.986,135.772 C263.685,136.62 262.261,137.282 260.93,138.075 C260.763,138.176 260.606,138.04 260.649,138.357 C263.074,138.719 265.499,138.771 267.952,138.553 C268.299,138.522 269.149,138.438 269.32,138.147 Z" />
        </g>
        <g id="Regular-S">
            <path d="M478.171,92.017 C487.005,96.814 492.485,105.131 493.484,115.172 C493.579,116.135 493.427,117.953 493.69,118.807 C493.811,119.201 494.863,120.41 495.164,120.888 C498.448,126.1 500.712,132.042 500.996,138.266 C498.402,139.555 495.64,140.481 492.802,141.089 C489.325,141.833 486.159,141.935 482.606,141.85 C482.012,141.835 480.769,141.524 480.248,141.633 C479.905,141.706 477.634,143.127 476.951,143.434 C468.231,147.362 457.818,146.803 449.757,141.599 C444.476,142.227 439.332,141.847 434.246,140.317 C433.382,140.057 429.491,138.774 429.083,138.226 C428.917,138.003 429.056,136.898 429.097,136.511 C429.565,131.974 431.269,127.08 433.478,123.113 C434.006,122.165 436.254,119.218 436.425,118.664 C436.686,117.817 436.419,115.909 436.489,114.887 C437.006,107.42 441.336,99.842 447.081,95.188 C448.055,94.399 451.374,92.505 451.84,91.842 C452.467,90.951 453.068,89.179 453.663,88.117 C455.822,84.255 458.997,80.47 462.433,77.69 C462.898,77.314 464.606,75.932 465.095,76.003 C465.773,76.102 468.936,78.831 469.608,79.462 C473.278,82.906 476.232,87.376 478.172,92.017 Z M475.574,90.772 C474.009,87.762 472.131,84.872 469.819,82.379 C469.188,81.699 465.633,78.266 464.984,78.265 C464.578,78.265 461.901,80.639 461.427,81.097 C454.433,87.84 450.555,97.676 450.983,107.417 L454.467,106.14 C454.494,97.165 458.224,88.543 464.983,82.67 C467.25,84.596 469.198,86.934 470.781,89.452 L475.573,90.772 Z M468.04,88.924 C467.412,87.518 466.066,86.44 465.111,85.231 C464.818,85.168 462.599,87.8 462.298,88.227 C462.149,88.437 461.914,88.654 461.928,88.924 L468.04,88.924 Z M491.635,116.237 C490.955,101.333 478.177,89.931 463.273,90.768 C462.66,90.802 461.149,90.926 460.648,91.128 C459.729,91.495 458.886,94.281 458.376,95.183 C468.188,92.462 478.536,96.114 484.219,104.53 C485.916,107.043 486.948,109.758 487.734,112.677 L491.636,116.239 Z M448.993,134.303 C447.471,132.532 446.005,130.909 444.847,128.851 C439.471,119.303 441.571,107.543 449.481,100.152 L450.698,94.899 C438.661,102.685 434.678,118.442 442.004,130.985 C442.354,131.584 444.125,134.318 444.59,134.515 C444.996,134.687 448.81,134.483 448.993,134.303 Z M473.726,105.993 C473.693,105.309 473.772,104.609 473.733,103.925 C473.681,102.979 473.03,98.566 472.576,97.97 C472.308,97.616 470.568,97.229 470.033,97.101 C466.073,96.156 461.539,96.402 457.736,97.886 C457.283,99.699 456.845,101.643 456.67,103.505 C456.635,103.877 456.467,105.841 456.677,105.989 C462.271,104.801 468.131,104.796 473.726,105.993 Z M474.723,98.597 C477.01,109.092 473.996,119.946 466.488,127.565 C466.447,127.802 468.937,129.692 469.108,129.704 C469.317,129.716 470.564,128.331 470.815,128.046 C476.502,121.601 479.499,112.075 478.993,103.498 C478.931,102.467 478.919,101.377 478.135,100.657 C477.83,100.377 474.913,98.388 474.724,98.596 Z M480.833,103.292 L480.833,108.413 L485.241,110.759 C484.205,108.041 482.845,105.412 480.833,103.292 Z M449.135,103.434 C448.861,103.37 448.862,103.534 448.735,103.673 C447.686,104.824 446.42,106.944 445.744,108.362 C445.533,108.803 444.931,110.079 444.868,110.476 C444.838,110.671 444.874,110.751 445.08,110.688 C445.521,110.553 447.3,109.302 447.902,108.958 C448.275,108.743 448.715,108.516 449.134,108.413 L449.134,103.434 Z M443.734,115.313 C443.632,116.327 443.809,117.482 443.734,118.514 C444.882,117.653 445.929,116.673 447.101,115.838 C451.722,112.54 457.566,110.364 463.273,110.115 C466.602,109.97 469.935,110.332 473.158,111.118 L473.585,107.561 C467.924,106.373 461.799,106.221 456.183,107.715 C453.057,108.546 450.069,109.832 447.3,111.486 C446.723,111.83 444.556,113.15 444.239,113.543 C444.054,113.771 443.767,114.996 443.734,115.314 Z M499.005,137.128 C497.895,125.844 490.8,115.569 480.765,110.405 C480.563,110.448 479.925,113.768 480.044,113.96 C486.521,117.807 491.666,123.733 494.094,130.921 C494.347,131.672 495.1,134.004 495.062,134.663 C495.055,134.789 495.079,134.811 494.964,134.89 C494.569,135.165 492.155,135.693 491.521,135.826 C490.323,136.08 489.083,136.293 487.868,136.438 C487.432,136.491 486.877,136.35 486.478,136.469 C486.256,136.535 483.452,139.172 483.039,139.572 C482.9,139.707 482.771,139.758 482.825,139.996 C487.105,140.097 491.227,139.721 495.332,138.502 C496.584,138.131 497.807,137.642 499.005,137.129 Z M472.573,112.981 C467.654,111.614 462.314,111.625 457.391,112.977 C458.528,118.027 461.347,122.682 464.984,126.335 C467.942,123.409 470.413,119.635 471.843,115.704 C471.999,115.273 472.757,113.246 472.573,112.983 Z M455.528,113.68 C455.351,113.553 452.527,114.681 452.43,114.838 C452.13,115.318 453.255,118.107 453.519,118.753 C456.464,125.969 464.073,134.66 471.598,137.218 C471.767,137.275 471.955,137.388 472.127,137.405 C472.734,137.464 476.853,135.383 476.57,135.161 C466.426,132.448 458.201,123.796 455.528,113.681 Z M459.087,130.887 C458.288,129.655 457.202,128.637 456.326,127.463 C454.76,125.363 453.309,122.85 452.238,120.458 C451.579,118.986 451.069,117.455 450.481,115.953 C448.038,117.129 446.109,119.107 444.045,120.815 C444.588,124.54 446.196,128.068 448.573,130.957 C449.027,131.51 450.737,133.439 451.275,133.658 C451.847,133.892 453.455,133.306 454.106,133.089 C455.827,132.515 457.456,131.664 459.087,130.887 Z M470.885,130.889 C472.541,131.611 474.144,132.513 475.865,133.089 C476.515,133.307 478.124,133.893 478.697,133.658 C479.27,133.424 480.917,131.544 481.401,130.957 C483.093,128.894 484.421,126.537 485.245,123.993 C485.447,123.372 486.125,121.273 485.884,120.788 C483.841,119.063 481.899,117.03 479.416,115.953 C477.828,121.574 474.683,126.516 470.886,130.889 Z M434.94,134.856 C434.718,134.513 435.839,131.145 436.057,130.532 C436.372,129.644 437.78,126.908 437.836,126.355 C437.93,125.459 436.607,122.814 436.769,121.643 C436.08,122.265 435.588,123.238 435.133,124.059 C433.387,127.207 432.173,130.483 431.439,134.018 C431.339,134.493 430.788,136.977 431.031,137.165 C441.414,141.675 453.688,140.743 463.21,134.658 C463.213,134.276 460.906,132.522 460.461,132.19 C452.83,136.73 443.362,137.753 434.94,134.856 Z M452.833,140.992 C452.733,141.12 453.366,141.475 453.489,141.542 C465.253,147.837 480.956,142.535 487.717,131.448 C488.148,130.742 490.168,127.012 490.047,126.443 C489.983,126.144 487.801,122.931 487.587,122.926 C487.21,123.522 487.152,124.294 486.913,124.952 C482.987,135.764 472.241,142.282 460.763,140.238 C459.944,140.093 458.449,139.524 457.741,139.562 C456.433,139.633 454.288,140.915 452.833,140.993 Z M442.028,134.445 C440.809,132.688 439.706,130.854 438.83,128.898 C438.502,129.059 437.355,132.35 437.258,132.875 C437.217,133.096 437.107,133.401 437.255,133.603 C437.403,133.805 441.832,134.589 442.028,134.445 Z M491.351,128.898 C491.026,128.84 491.125,128.917 491.035,129.081 C490.611,129.849 490.286,130.741 489.813,131.556 C489.235,132.55 488.619,133.519 487.941,134.446 C489.635,134.414 491.274,133.94 492.917,133.593 L491.351,128.9 Z M469.32,138.147 L464.986,135.772 C463.685,136.62 462.261,137.282 460.93,138.075 C460.763,138.176 460.606,138.04 460.649,138.357 C463.074,138.719 465.499,138.771 467.952,138.553 C468.299,138.522 469.149,138.438 469.32,138.147 Z" />
        </g>
        <g id="Black-S">
            <path d="M678.171,92.017 C687.005,96.814 692.485,105.131 693.484,115.172 C693.579,116.135 693.427,117.953 693.69,118.807 C693.811,119.201 694.863,120.41 695.164,120.888 C698.448,126.1 700.712,132.042 700.996,138.266 C698.402,139.555 695.64,140.481 692.802,141.089 C689.325,141.833 686.159,141.935 682.606,141.85 C682.012,141.835 680.769,141.524 680.248,141.633 C679.905,141.706 677.634,143.127 676.951,143.434 C668.231,147.362 657.818,146.803 649.757,141.599 C644.476,142.227 639.332,141.847 634.246,140.317 C633.382,140.057 629.491,138.774 629.083,138.226 C628.917,138.003 629.056,136.898 629.097,136.511 C629.565,131.974 631.269,127.08 633.478,123.113 C634.006,122.165 636.254,119.218 636.425,118.664 C636.686,117.817 636.419,115.909 636.489,114.887 C637.006,107.42 641.336,99.842 647.081,95.188 C648.055,94.399 651.374,92.505 651.84,91.842 C652.467,90.951 653.068,89.179 653.663,88.117 C655.822,84.255 658.997,80.47 662.433,77.69 C662.898,77.314 664.606,75.932 665.095,76.003 C665.773,76.102 668.936,78.831 669.608,79.462 C673.278,82.906 676.232,87.376 678.172,92.017 Z M675.574,90.772 C674.009,87.762 672.131,84.872 669.819,82.379 C669.188,81.699 665.633,78.266 664.984,78.265 C664.578,78.265 661.901,80.639 661.427,81.097 C654.433,87.84 650.555,97.676 650.983,107.417 L654.467,106.14 C654.494,97.165 658.224,88.543 664.983,82.67 C667.25,84.596 669.198,86.934 670.781,89.452 L675.573,90.772 Z M668.04,88.924 C667.412,87.518 666.066,86.44 665.111,85.231 C664.818,85.168 662.599,87.8 662.298,88.227 C662.149,88.437 661.914,88.654 661.928,88.924 L668.04,88.924 Z M691.635,116.237 C690.955,101.333 678.177,89.931 663.273,90.768 C662.66,90.802 661.149,90.926 660.648,91.128 C659.729,91.495 658.886,94.281 658.376,95.183 C668.188,92.462 678.536,96.114 684.219,104.53 C685.916,107.043 686.948,109.758 687.734,112.677 L691.636,116.239 Z M648.993,134.303 C647.471,132.532 646.005,130.909 644.847,128.851 C639.471,119.303 641.57,107.543 649.481,100.152 L650.698,94.899 C638.661,102.685 634.678,118.442 642.004,130.985 C642.354,131.584 644.125,134.318 644.59,134.515 C644.996,134.687 648.81,134.483 648.993,134.303 Z M673.726,105.993 C673.693,105.309 673.772,104.609 673.733,103.925 C673.681,102.979 673.03,98.566 672.576,97.97 C672.308,97.616 670.568,97.229 670.033,97.101 C666.073,96.156 661.539,96.402 657.736,97.886 C657.283,99.699 656.845,101.643 656.67,103.505 C656.635,103.877 656.467,105.841 656.677,105.989 C662.271,104.801 668.131,104.796 673.726,105.993 Z M674.723,98.597 C677.01,109.092 673.996,119.946 666.488,127.565 C666.447,127.802 668.937,129.692 669.108,129.704 C669.317,129.716 670.563,128.331 670.815,128.046 C676.502,121.601 679.499,112.075 678.993,103.498 C678.931,102.467 678.919,101.377 678.135,100.657 C677.83,100.377 674.913,98.388 674.724,98.596 Z M680.833,103.292 L680.833,108.413 L685.241,110.759 C684.205,108.041 682.845,105.412 680.833,103.292 Z M649.135,103.434 C648.861,103.37 648.862,103.534 648.735,103.673 C647.686,104.824 646.42,106.944 645.744,108.362 C645.533,108.803 644.931,110.079 644.868,110.476 C644.838,110.671 644.874,110.751 645.08,110.688 C645.521,110.553 647.3,109.302 647.902,108.958 C648.275,108.743 648.715,108.516 649.134,108.413 L649.134,103.434 Z M643.734,115.313 C643.632,116.327 643.809,117.482 643.734,118.514 C644.882,117.653 645.929,116.673 647.101,115.838 C651.722,112.54 657.566,110.364 663.273,110.115 C666.602,109.97 669.935,110.332 673.158,111.118 L673.585,107.561 C667.924,106.373 661.799,106.221 656.183,107.715 C653.057,108.546 650.069,109.832 647.3,111.486 C646.723,111.83 644.556,113.15 644.239,113.543 C644.054,113.771 643.767,114.996 643.734,115.314 Z M699.005,137.128 C697.895,125.844 690.8,115.569 680.765,110.405 C680.563,110.448 679.925,113.768 680.044,113.96 C686.521,117.807 691.666,123.733 694.094,130.921 C694.347,131.672 695.1,134.004 695.062,134.663 C695.055,134.789 695.079,134.811 694.964,134.89 C694.569,135.165 692.155,135.693 691.521,135.826 C690.323,136.08 689.083,136.293 687.868,136.438 C687.432,136.491 686.877,136.35 686.478,136.469 C686.256,136.535 683.452,139.172 683.039,139.572 C682.9,139.707 682.771,139.758 682.825,139.996 C687.105,140.097 691.227,139.721 695.332,138.502 C696.584,138.131 697.807,137.642 699.005,137.129 Z M672.573,112.981 C667.654,111.614 662.313,111.625 657.391,112.977 C658.528,118.027 661.347,122.682 664.984,126.335 C667.942,123.409 670.413,119.635 671.843,115.704 C671.999,115.273 672.757,113.246 672.573,112.983 Z M655.528,113.68 C655.351,113.553 652.527,114.681 652.43,114.838 C652.13,115.318 653.255,118.107 653.519,118.753 C656.464,125.969 664.073,134.66 671.598,137.218 C671.767,137.275 671.955,137.388 672.127,137.405 C672.734,137.464 676.853,135.383 676.57,135.161 C666.426,132.448 658.201,123.796 655.528,113.681 Z M659.087,130.887 C658.288,129.655 657.202,128.637 656.326,127.463 C654.76,125.363 653.309,122.85 652.238,120.458 C651.579,118.986 651.069,117.455 650.482,115.953 C648.038,117.129 646.109,119.107 644.045,120.815 C644.588,124.54 646.196,128.068 648.573,130.957 C649.027,131.51 650.737,133.439 651.275,133.658 C651.847,133.892 653.455,133.306 654.106,133.089 C655.828,132.515 657.456,131.664 659.087,130.887 Z M670.885,130.889 C672.541,131.611 674.144,132.513 675.865,133.089 C676.515,133.307 678.124,133.893 678.697,133.658 C679.27,133.424 680.917,131.544 681.401,130.957 C683.093,128.894 684.421,126.537 685.245,123.993 C685.447,123.372 686.125,121.273 685.884,120.788 C683.841,119.063 681.899,117.03 679.416,115.953 C677.828,121.574 674.683,126.516 670.886,130.889 Z M634.94,134.856 C634.718,134.513 635.839,131.145 636.057,130.532 C636.372,129.644 637.78,126.908 637.836,126.355 C637.93,125.459 636.607,122.814 636.769,121.643 C636.08,122.265 635.588,123.238 635.133,124.059 C633.387,127.207 632.173,130.483 631.439,134.018 C631.339,134.493 630.788,136.977 631.031,137.165 C641.414,141.675 653.688,140.743 663.21,134.658 C663.213,134.276 660.906,132.522 660.461,132.19 C652.83,136.73 643.362,137.753 634.94,134.856 Z M652.833,140.992 C652.733,141.12 653.366,141.475 653.489,141.542 C665.253,147.837 680.956,142.535 687.717,131.448 C688.148,130.742 690.168,127.012 690.047,126.443 C689.983,126.144 687.801,122.931 687.587,122.926 C687.21,123.522 687.152,124.294 686.913,124.952 C682.987,135.764 672.241,142.282 660.763,140.238 C659.944,140.093 658.449,139.524 657.741,139.562 C656.433,139.633 654.288,140.915 652.833,140.993 Z M642.028,134.445 C640.809,132.688 639.706,130.854 638.83,128.898 C638.502,129.059 637.355,132.35 637.258,132.875 C637.217,133.096 637.107,133.401 637.255,133.603 C637.403,133.805 641.832,134.589 642.028,134.445 Z M691.351,128.898 C691.026,128.84 691.125,128.917 691.035,129.081 C690.611,129.849 690.286,130.741 689.813,131.556 C689.235,132.55 688.619,133.519 687.941,134.446 C689.635,134.414 691.274,133.94 692.917,133.593 L691.351,128.9 Z M669.32,138.147 L664.986,135.772 C663.685,136.62 662.261,137.282 660.93,138.075 C660.763,138.176 660.606,138.04 660.649,138.357 C663.074,138.719 665.499,138.771 667.952,138.553 C668.299,138.522 669.149,138.438 669.32,138.147 Z" />
        </g>
    </g>
</svg>