<?xml version="1.0" encoding="UTF-8"?>
<svg xmlns="http://www.w3.org/2000/svg" viewBox="0 0 856.02 856.02">
  <defs>
    <style>
      .cls-1 {
        fill: #d3ff8d;
      }

      .cls-2 {
        fill: #a9c4ff;
      }

      .cls-3 {
        fill: #ff8080;
      }

      .cls-4 {
        mix-blend-mode: soft-light;
        opacity: .76;
      }

      .cls-4, .cls-5 {
        fill: #ffaed5;
      }

      .cls-6 {
        isolation: isolate;
      }

      .cls-7 {
        fill: #d29fff;
      }

      .cls-8 {
        fill: #ffb56c;
      }

      .cls-9 {
        fill: #fff27b;
      }
    </style>
  </defs>
  <g class="cls-6">
    <g id="Layer_2" data-name="Layer 2">
      <g id="Layer_1-2" data-name="Layer 1">
        <g>
          <path class="cls-3" d="M446.84,856.02c0-226.04,183.17-409.29,409.18-409.43V0C383.25,0,0,383.25,0,856.02"/>
          <path class="cls-8" d="M446.84,856.02c0-226.04,183.17-409.29,409.18-409.43V85.6c-425.49,0-770.42,344.93-770.42,770.42"/>
          <path class="cls-9" d="M446.84,856.02c0-226.04,183.17-409.29,409.18-409.43V162.64c-382.94,0-693.38,310.44-693.38,693.38"/>
          <path class="cls-1" d="M446.84,856.02c0-226.04,183.17-409.29,409.18-409.43v-214.61c-344.65,0-624.04,279.39-624.04,624.04"/>
          <path class="cls-2" d="M446.84,856.02c0-226.04,183.17-409.29,409.18-409.43v-152.2c-310.18,0-561.64,251.45-561.64,561.64"/>
          <path class="cls-7" d="M446.84,856.02c0-226.04,183.17-409.29,409.18-409.43v-96.04c-279.16,0-505.47,226.31-505.47,505.47"/>
          <path class="cls-5" d="M446.84,856.02c0-226.04,183.17-409.29,409.18-409.43v-45.49c-251.25,0-454.92,203.68-454.92,454.92"/>
        </g>
        <path class="cls-4" d="M0,856.02h446.84c0-226.04,183.17-409.29,409.18-409.43V0C383.25,0,0,383.25,0,856.02Z"/>
      </g>
    </g>
  </g>
</svg>