<?xml version="1.0" encoding="UTF-8"?>
<svg height="600" width="800" xmlns="http://www.w3.org/2000/svg" xmlns:xlink="http://www.w3.org/1999/xlink">
    <g id="Notes" font-family="'LucidaGrande', 'Lucida Grande', sans-serif" font-size="13">
        <rect fill="white" height="600.0" width="800.0" x="0.0" y="0.0" />
        <g font-size="13">
            <text x="18.0" y="176.0">Small</text>
            <text x="18.0" y="376.0">Medium</text>
            <text x="18.0" y="576.0">Large</text>
        </g>
        <g font-size="9">
            <text x="250.0" y="30.0">Ultralight</text>
            <text x="450.0" y="30.0">Regular</text>
            <text x="650.0" y="30.0">Black</text>
            <text id="template-version" fill="#505050" text-anchor="end" x="785.0" y="575.0">Template v.3.0</text>
            <a href="https://wangchujiang.com/#/app">
                <text fill="#505050" text-anchor="end" x="785.0" y="590.0">https://wangchujiang.com/#/app</text>
            </a>
        </g>
    </g>
    <g id="Guides" stroke="rgb(39, 170, 225)" stroke-width="0.5">
        <path id="Capline-S" d="M18,76 l800,0" />
        <path id="H-reference" d="M85,145.755 L87.685,145.755 L113.369,79.287 L114.052,79.287 L114.052,76 L112.148,76 L85,145.755 Z M95.693,121.536 L130.996,121.536 L130.263,119.313 L96.474,119.313 L95.693,121.536 Z M139.15,145.755 L141.787,145.755 L114.638,76 L113.466,76 L113.466,79.287 L139.15,145.755 Z" stroke="none" />
        <path id="Baseline-S" d="M18,146 l800,0" />
        <path id="left-margin-Ultralight-S" d="M218.25,56 l0,110" />
        <path id="right-margin-Ultralight-S" d="M311.75,56 l0,110" />
        <path id="left-margin-Regular-S" d="M418.25,56 l0,110" />
        <path id="right-margin-Regular-S" d="M511.75,56 l0,110" />
        <path id="left-margin-Black-S" d="M618.25,56 l0,110" />
        <path id="right-margin-Black-S" d="M711.75,56 l0,110" />
        <path id="Capline-M" d="M18,276 l800,0" />
        <path id="Baseline-M" d="M18,346 l800,0" />
        <path id="Capline-L" d="M18,476 l800,0" />
        <path id="Baseline-L" d="M18,546 l800,0" />
    </g>
    <g id="Symbols">
        <g id="Ultralight-S">
            <path d="M231.75,146 L240.5,146 C242.433,146 244,144.433 244,142.5 C244,140.567 242.433,139 240.5,139 L231.75,139 C229.817,139 228.25,140.567 228.25,142.5 C228.25,144.433 229.817,146 231.75,146 Z" />
            <path d="M231.75,135.5 L240.5,135.5 C242.433,135.5 244,133.933 244,132 C244,130.067 242.433,128.5 240.5,128.5 L231.75,128.5 C229.817,128.5 228.25,130.067 228.25,132 C228.25,133.933 229.817,135.5 231.75,135.5 Z" />
            <path d="M231.75,125 L240.5,125 C242.433,125 244,123.433 244,121.5 C244,119.567 242.433,118 240.5,118 L231.75,118 C229.817,118 228.25,119.567 228.25,121.5 C228.25,123.433 229.817,125 231.75,125 Z" />
            <path d="M231.75,114.5 L240.5,114.5 C242.433,114.5 244,112.933 244,111 C244,109.067 242.433,107.5 240.5,107.5 L231.75,107.5 C229.817,107.5 228.25,109.067 228.25,111 C228.25,112.933 229.817,114.5 231.75,114.5 Z" />
            <path d="M251,146 L259.75,146 C261.683,146 263.25,144.433 263.25,142.5 C263.25,140.567 261.683,139 259.75,139 L251,139 C249.067,139 247.5,140.567 247.5,142.5 C247.5,144.433 249.067,146 251,146 Z" />
            <path d="M251,135.5 L259.75,135.5 C261.683,135.5 263.25,133.933 263.25,132 C263.25,130.067 261.683,128.5 259.75,128.5 L251,128.5 C249.067,128.5 247.5,130.067 247.5,132 C247.5,133.933 249.067,135.5 251,135.5 Z" />
            <path d="M251,125 L259.75,125 C261.683,125 263.25,123.433 263.25,121.5 C263.25,119.567 261.683,118 259.75,118 L251,118 C249.067,118 247.5,119.567 247.5,121.5 C247.5,123.433 249.067,125 251,125 Z" />
            <path d="M251,114.5 L259.75,114.5 C261.683,114.5 263.25,112.933 263.25,111 C263.25,109.067 261.683,107.5 259.75,107.5 L251,107.5 C249.067,107.5 247.5,109.067 247.5,111 C247.5,112.933 249.067,114.5 251,114.5 Z" />
            <path d="M251,104 L259.75,104 C261.683,104 263.25,102.433 263.25,100.5 C263.25,98.567 261.683,97 259.75,97 L251,97 C249.067,97 247.5,98.567 247.5,100.5 C247.5,102.433 249.067,104 251,104 Z" />
            <path d="M251,93.5 L259.75,93.5 C261.683,93.5 263.25,91.933 263.25,90 C263.25,88.067 261.683,86.5 259.75,86.5 L251,86.5 C249.067,86.5 247.5,88.067 247.5,90 C247.5,91.933 249.067,93.5 251,93.5 Z" />
            <path d="M251,83 L259.75,83 C261.683,83 263.25,81.433 263.25,79.5 C263.25,77.567 261.683,76 259.75,76 L251,76 C249.067,76 247.5,77.567 247.5,79.5 C247.5,81.433 249.067,83 251,83 Z" />
            <path d="M270.25,146 L279,146 C280.933,146 282.5,144.433 282.5,142.5 C282.5,140.567 280.933,139 279,139 L270.25,139 C268.317,139 266.75,140.567 266.75,142.5 C266.75,144.433 268.317,146 270.25,146 Z" />
            <path d="M289.5,146 L298.25,146 C300.183,146 301.75,144.433 301.75,142.5 C301.75,140.567 300.183,139 298.25,139 L289.5,139 C287.567,139 286,140.567 286,142.5 C286,144.433 287.567,146 289.5,146 Z" />
            <path d="M270.25,135.5 L279,135.5 C280.933,135.5 282.5,133.933 282.5,132 C282.5,130.067 280.933,128.5 279,128.5 L270.25,128.5 C268.317,128.5 266.75,130.067 266.75,132 C266.75,133.933 268.317,135.5 270.25,135.5 Z" />
            <path d="M289.5,135.5 L298.25,135.5 C300.183,135.5 301.75,133.933 301.75,132 C301.75,130.067 300.183,128.5 298.25,128.5 L289.5,128.5 C287.567,128.5 286,130.067 286,132 C286,133.933 287.567,135.5 289.5,135.5 Z" />
            <path d="M270.25,125 L279,125 C280.933,125 282.5,123.433 282.5,121.5 C282.5,119.567 280.933,118 279,118 L270.25,118 C268.317,118 266.75,119.567 266.75,121.5 C266.75,123.433 268.317,125 270.25,125 Z" />
            <path d="M289.5,125 L298.25,125 C300.183,125 301.75,123.433 301.75,121.5 C301.75,119.567 300.183,118 298.25,118 L289.5,118 C287.567,118 286,119.567 286,121.5 C286,123.433 287.567,125 289.5,125 Z" />
            <path d="M289.5,114.5 L298.25,114.5 C300.183,114.5 301.75,112.933 301.75,111 C301.75,109.067 300.183,107.5 298.25,107.5 L289.5,107.5 C287.567,107.5 286,109.067 286,111 C286,112.933 287.567,114.5 289.5,114.5 Z" />
            <path d="M289.5,104 L298.25,104 C300.183,104 301.75,102.433 301.75,100.5 C301.75,98.567 300.183,97 298.25,97 L289.5,97 C287.567,97 286,98.567 286,100.5 C286,102.433 287.567,104 289.5,104 Z" />
        </g>
        <g id="Regular-S">
            <path d="M431.75,146 L440.5,146 C442.433,146 444,144.433 444,142.5 C444,140.567 442.433,139 440.5,139 L431.75,139 C429.817,139 428.25,140.567 428.25,142.5 C428.25,144.433 429.817,146 431.75,146 Z" />
            <path d="M431.75,135.5 L440.5,135.5 C442.433,135.5 444,133.933 444,132 C444,130.067 442.433,128.5 440.5,128.5 L431.75,128.5 C429.817,128.5 428.25,130.067 428.25,132 C428.25,133.933 429.817,135.5 431.75,135.5 Z" />
            <path d="M431.75,125 L440.5,125 C442.433,125 444,123.433 444,121.5 C444,119.567 442.433,118 440.5,118 L431.75,118 C429.817,118 428.25,119.567 428.25,121.5 C428.25,123.433 429.817,125 431.75,125 Z" />
            <path d="M431.75,114.5 L440.5,114.5 C442.433,114.5 444,112.933 444,111 C444,109.067 442.433,107.5 440.5,107.5 L431.75,107.5 C429.817,107.5 428.25,109.067 428.25,111 C428.25,112.933 429.817,114.5 431.75,114.5 Z" />
            <path d="M451,146 L459.75,146 C461.683,146 463.25,144.433 463.25,142.5 C463.25,140.567 461.683,139 459.75,139 L451,139 C449.067,139 447.5,140.567 447.5,142.5 C447.5,144.433 449.067,146 451,146 Z" />
            <path d="M451,135.5 L459.75,135.5 C461.683,135.5 463.25,133.933 463.25,132 C463.25,130.067 461.683,128.5 459.75,128.5 L451,128.5 C449.067,128.5 447.5,130.067 447.5,132 C447.5,133.933 449.067,135.5 451,135.5 Z" />
            <path d="M451,125 L459.75,125 C461.683,125 463.25,123.433 463.25,121.5 C463.25,119.567 461.683,118 459.75,118 L451,118 C449.067,118 447.5,119.567 447.5,121.5 C447.5,123.433 449.067,125 451,125 Z" />
            <path d="M451,114.5 L459.75,114.5 C461.683,114.5 463.25,112.933 463.25,111 C463.25,109.067 461.683,107.5 459.75,107.5 L451,107.5 C449.067,107.5 447.5,109.067 447.5,111 C447.5,112.933 449.067,114.5 451,114.5 Z" />
            <path d="M451,104 L459.75,104 C461.683,104 463.25,102.433 463.25,100.5 C463.25,98.567 461.683,97 459.75,97 L451,97 C449.067,97 447.5,98.567 447.5,100.5 C447.5,102.433 449.067,104 451,104 Z" />
            <path d="M451,93.5 L459.75,93.5 C461.683,93.5 463.25,91.933 463.25,90 C463.25,88.067 461.683,86.5 459.75,86.5 L451,86.5 C449.067,86.5 447.5,88.067 447.5,90 C447.5,91.933 449.067,93.5 451,93.5 Z" />
            <path d="M451,83 L459.75,83 C461.683,83 463.25,81.433 463.25,79.5 C463.25,77.567 461.683,76 459.75,76 L451,76 C449.067,76 447.5,77.567 447.5,79.5 C447.5,81.433 449.067,83 451,83 Z" />
            <path d="M470.25,146 L479,146 C480.933,146 482.5,144.433 482.5,142.5 C482.5,140.567 480.933,139 479,139 L470.25,139 C468.317,139 466.75,140.567 466.75,142.5 C466.75,144.433 468.317,146 470.25,146 Z" />
            <path d="M489.5,146 L498.25,146 C500.183,146 501.75,144.433 501.75,142.5 C501.75,140.567 500.183,139 498.25,139 L489.5,139 C487.567,139 486,140.567 486,142.5 C486,144.433 487.567,146 489.5,146 Z" />
            <path d="M470.25,135.5 L479,135.5 C480.933,135.5 482.5,133.933 482.5,132 C482.5,130.067 480.933,128.5 479,128.5 L470.25,128.5 C468.317,128.5 466.75,130.067 466.75,132 C466.75,133.933 468.317,135.5 470.25,135.5 Z" />
            <path d="M489.5,135.5 L498.25,135.5 C500.183,135.5 501.75,133.933 501.75,132 C501.75,130.067 500.183,128.5 498.25,128.5 L489.5,128.5 C487.567,128.5 486,130.067 486,132 C486,133.933 487.567,135.5 489.5,135.5 Z" />
            <path d="M470.25,125 L479,125 C480.933,125 482.5,123.433 482.5,121.5 C482.5,119.567 480.933,118 479,118 L470.25,118 C468.317,118 466.75,119.567 466.75,121.5 C466.75,123.433 468.317,125 470.25,125 Z" />
            <path d="M489.5,125 L498.25,125 C500.183,125 501.75,123.433 501.75,121.5 C501.75,119.567 500.183,118 498.25,118 L489.5,118 C487.567,118 486,119.567 486,121.5 C486,123.433 487.567,125 489.5,125 Z" />
            <path d="M489.5,114.5 L498.25,114.5 C500.183,114.5 501.75,112.933 501.75,111 C501.75,109.067 500.183,107.5 498.25,107.5 L489.5,107.5 C487.567,107.5 486,109.067 486,111 C486,112.933 487.567,114.5 489.5,114.5 Z" />
            <path d="M489.5,104 L498.25,104 C500.183,104 501.75,102.433 501.75,100.5 C501.75,98.567 500.183,97 498.25,97 L489.5,97 C487.567,97 486,98.567 486,100.5 C486,102.433 487.567,104 489.5,104 Z" />
        </g>
        <g id="Black-S">
            <path d="M631.75,146 L640.5,146 C642.433,146 644,144.433 644,142.5 C644,140.567 642.433,139 640.5,139 L631.75,139 C629.817,139 628.25,140.567 628.25,142.5 C628.25,144.433 629.817,146 631.75,146 Z" />
            <path d="M631.75,135.5 L640.5,135.5 C642.433,135.5 644,133.933 644,132 C644,130.067 642.433,128.5 640.5,128.5 L631.75,128.5 C629.817,128.5 628.25,130.067 628.25,132 C628.25,133.933 629.817,135.5 631.75,135.5 Z" />
            <path d="M631.75,125 L640.5,125 C642.433,125 644,123.433 644,121.5 C644,119.567 642.433,118 640.5,118 L631.75,118 C629.817,118 628.25,119.567 628.25,121.5 C628.25,123.433 629.817,125 631.75,125 Z" />
            <path d="M631.75,114.5 L640.5,114.5 C642.433,114.5 644,112.933 644,111 C644,109.067 642.433,107.5 640.5,107.5 L631.75,107.5 C629.817,107.5 628.25,109.067 628.25,111 C628.25,112.933 629.817,114.5 631.75,114.5 Z" />
            <path d="M651,146 L659.75,146 C661.683,146 663.25,144.433 663.25,142.5 C663.25,140.567 661.683,139 659.75,139 L651,139 C649.067,139 647.5,140.567 647.5,142.5 C647.5,144.433 649.067,146 651,146 Z" />
            <path d="M651,135.5 L659.75,135.5 C661.683,135.5 663.25,133.933 663.25,132 C663.25,130.067 661.683,128.5 659.75,128.5 L651,128.5 C649.067,128.5 647.5,130.067 647.5,132 C647.5,133.933 649.067,135.5 651,135.5 Z" />
            <path d="M651,125 L659.75,125 C661.683,125 663.25,123.433 663.25,121.5 C663.25,119.567 661.683,118 659.75,118 L651,118 C649.067,118 647.5,119.567 647.5,121.5 C647.5,123.433 649.067,125 651,125 Z" />
            <path d="M651,114.5 L659.75,114.5 C661.683,114.5 663.25,112.933 663.25,111 C663.25,109.067 661.683,107.5 659.75,107.5 L651,107.5 C649.067,107.5 647.5,109.067 647.5,111 C647.5,112.933 649.067,114.5 651,114.5 Z" />
            <path d="M651,104 L659.75,104 C661.683,104 663.25,102.433 663.25,100.5 C663.25,98.567 661.683,97 659.75,97 L651,97 C649.067,97 647.5,98.567 647.5,100.5 C647.5,102.433 649.067,104 651,104 Z" />
            <path d="M651,93.5 L659.75,93.5 C661.683,93.5 663.25,91.933 663.25,90 C663.25,88.067 661.683,86.5 659.75,86.5 L651,86.5 C649.067,86.5 647.5,88.067 647.5,90 C647.5,91.933 649.067,93.5 651,93.5 Z" />
            <path d="M651,83 L659.75,83 C661.683,83 663.25,81.433 663.25,79.5 C663.25,77.567 661.683,76 659.75,76 L651,76 C649.067,76 647.5,77.567 647.5,79.5 C647.5,81.433 649.067,83 651,83 Z" />
            <path d="M670.25,146 L679,146 C680.933,146 682.5,144.433 682.5,142.5 C682.5,140.567 680.933,139 679,139 L670.25,139 C668.317,139 666.75,140.567 666.75,142.5 C666.75,144.433 668.317,146 670.25,146 Z" />
            <path d="M689.5,146 L698.25,146 C700.183,146 701.75,144.433 701.75,142.5 C701.75,140.567 700.183,139 698.25,139 L689.5,139 C687.567,139 686,140.567 686,142.5 C686,144.433 687.567,146 689.5,146 Z" />
            <path d="M670.25,135.5 L679,135.5 C680.933,135.5 682.5,133.933 682.5,132 C682.5,130.067 680.933,128.5 679,128.5 L670.25,128.5 C668.317,128.5 666.75,130.067 666.75,132 C666.75,133.933 668.317,135.5 670.25,135.5 Z" />
            <path d="M689.5,135.5 L698.25,135.5 C700.183,135.5 701.75,133.933 701.75,132 C701.75,130.067 700.183,128.5 698.25,128.5 L689.5,128.5 C687.567,128.5 686,130.067 686,132 C686,133.933 687.567,135.5 689.5,135.5 Z" />
            <path d="M670.25,125 L679,125 C680.933,125 682.5,123.433 682.5,121.5 C682.5,119.567 680.933,118 679,118 L670.25,118 C668.317,118 666.75,119.567 666.75,121.5 C666.75,123.433 668.317,125 670.25,125 Z" />
            <path d="M689.5,125 L698.25,125 C700.183,125 701.75,123.433 701.75,121.5 C701.75,119.567 700.183,118 698.25,118 L689.5,118 C687.567,118 686,119.567 686,121.5 C686,123.433 687.567,125 689.5,125 Z" />
            <path d="M689.5,114.5 L698.25,114.5 C700.183,114.5 701.75,112.933 701.75,111 C701.75,109.067 700.183,107.5 698.25,107.5 L689.5,107.5 C687.567,107.5 686,109.067 686,111 C686,112.933 687.567,114.5 689.5,114.5 Z" />
            <path d="M689.5,104 L698.25,104 C700.183,104 701.75,102.433 701.75,100.5 C701.75,98.567 700.183,97 698.25,97 L689.5,97 C687.567,97 686,98.567 686,100.5 C686,102.433 687.567,104 689.5,104 Z" />
        </g>
    </g>
</svg>