<?xml version="1.0" encoding="UTF-8"?>
<svg height="600" width="800" xmlns="http://www.w3.org/2000/svg" xmlns:xlink="http://www.w3.org/1999/xlink">
    <g id="Notes" font-family="'LucidaGrande', 'Lucida Grande', sans-serif" font-size="13">
        <rect fill="white" height="600.0" width="800.0" x="0.0" y="0.0" />
        <g font-size="13">
            <text x="18.0" y="176.0">Small</text>
            <text x="18.0" y="376.0">Medium</text>
            <text x="18.0" y="576.0">Large</text>
        </g>
        <g font-size="9">
            <text x="250.0" y="30.0">Ultralight</text>
            <text x="450.0" y="30.0">Regular</text>
            <text x="650.0" y="30.0">Black</text>
            <text id="template-version" fill="#505050" text-anchor="end" x="785.0" y="575.0">Template v.3.0</text>
            <a href="https://wangchujiang.com/#/app">
                <text fill="#505050" text-anchor="end" x="785.0" y="590.0">https://wangchujiang.com/#/app</text>
            </a>
        </g>
    </g>
    <g id="Guides" stroke="rgb(39, 170, 225)" stroke-width="0.5">
        <path id="Capline-S" d="M18,76 l800,0" />
        <path id="H-reference" d="M85,145.755 L87.685,145.755 L113.369,79.287 L114.052,79.287 L114.052,76 L112.148,76 L85,145.755 Z M95.693,121.536 L130.996,121.536 L130.263,119.313 L96.474,119.313 L95.693,121.536 Z M139.15,145.755 L141.787,145.755 L114.638,76 L113.466,76 L113.466,79.287 L139.15,145.755 Z" stroke="none" />
        <path id="Baseline-S" d="M18,146 l800,0" />
        <path id="left-margin-Ultralight-S" d="M220.066,56 l0,110" />
        <path id="right-margin-Ultralight-S" d="M309.934,56 l0,110" />
        <path id="left-margin-Regular-S" d="M420.066,56 l0,110" />
        <path id="right-margin-Regular-S" d="M509.934,56 l0,110" />
        <path id="left-margin-Black-S" d="M620.066,56 l0,110" />
        <path id="right-margin-Black-S" d="M709.934,56 l0,110" />
        <path id="Capline-M" d="M18,276 l800,0" />
        <path id="Baseline-M" d="M18,346 l800,0" />
        <path id="Capline-L" d="M18,476 l800,0" />
        <path id="Baseline-L" d="M18,546 l800,0" />
    </g>
    <g id="Symbols">
        <g id="Ultralight-S">
            <path d="M298.782,77.167 C298.782,77.167 293.337,76 285.171,76 C263.782,76 224.504,84.167 230.726,145.222 C235.004,145.611 239.282,146 243.171,146 C312.782,146 298.782,77.167 298.782,77.167 M245.504,130.444 C245.504,130.444 245.504,91.556 284.393,91.556 C284.393,91.556 261.06,99.333 245.504,130.444" />
        </g>
        <g id="Regular-S">
            <path d="M498.782,77.167 C498.782,77.167 493.337,76 485.171,76 C463.782,76 424.504,84.167 430.726,145.222 C435.004,145.611 439.282,146 443.171,146 C512.782,146 498.782,77.167 498.782,77.167 M445.504,130.444 C445.504,130.444 445.504,91.556 484.393,91.556 C484.393,91.556 461.06,99.333 445.504,130.444" />
        </g>
        <g id="Black-S">
            <path d="M698.782,77.167 C698.782,77.167 693.337,76 685.171,76 C663.782,76 624.504,84.167 630.726,145.222 C635.004,145.611 639.282,146 643.171,146 C712.782,146 698.782,77.167 698.782,77.167 M645.504,130.444 C645.504,130.444 645.504,91.556 684.393,91.556 C684.393,91.556 661.06,99.333 645.504,130.444" />
        </g>
    </g>
</svg>