<?xml version="1.0" encoding="UTF-8"?>
<svg height="600" width="800" xmlns="http://www.w3.org/2000/svg" xmlns:xlink="http://www.w3.org/1999/xlink">
    <style>
        .st0 { fill: #000000 }
    </style>
    <g id="Notes" font-family="'LucidaGrande', 'Lucida Grande', sans-serif" font-size="13">
        <rect fill="white" height="600.0" width="800.0" x="0.0" y="0.0" />
        <g font-size="13">
            <text x="18.0" y="176.0">Small</text>
            <text x="18.0" y="376.0">Medium</text>
            <text x="18.0" y="576.0">Large</text>
        </g>
        <g font-size="9">
            <text x="250.0" y="30.0">Ultralight</text>
            <text x="450.0" y="30.0">Regular</text>
            <text x="650.0" y="30.0">Black</text>
            <text id="template-version" fill="#505050" text-anchor="end" x="785.0" y="575.0">Template v.3.0</text>
            <a href="https://wangchujiang.com/#/app">
                <text fill="#505050" text-anchor="end" x="785.0" y="590.0">https://wangchujiang.com/#/app</text>
            </a>
        </g>
    </g>
    <g id="Guides" stroke="rgb(39, 170, 225)" stroke-width="0.5">
        <path id="Capline-S" d="M18,76 l800,0" />
        <path id="H-reference" d="M85,145.755 L87.685,145.755 L113.369,79.287 L114.052,79.287 L114.052,76 L112.148,76 L85,145.755 Z M95.693,121.536 L130.996,121.536 L130.263,119.313 L96.474,119.313 L95.693,121.536 Z M139.15,145.755 L141.787,145.755 L114.638,76 L113.466,76 L113.466,79.287 L139.15,145.755 Z" stroke="none" />
        <path id="Baseline-S" d="M18,146 l800,0" />
        <path id="left-margin-Ultralight-S" d="M221,56 l0,110" />
        <path id="right-margin-Ultralight-S" d="M309,56 l0,110" />
        <path id="left-margin-Regular-S" d="M421,56 l0,110" />
        <path id="right-margin-Regular-S" d="M509,56 l0,110" />
        <path id="left-margin-Black-S" d="M621,56 l0,110" />
        <path id="right-margin-Black-S" d="M709,56 l0,110" />
        <path id="Capline-M" d="M18,276 l800,0" />
        <path id="Baseline-M" d="M18,346 l800,0" />
        <path id="Capline-L" d="M18,476 l800,0" />
        <path id="Baseline-L" d="M18,546 l800,0" />
    </g>
    <g id="Symbols">
        <g id="Ultralight-S">
            <path d="M281.409,106.522 C280.386,106.522 279.429,106.799 278.604,107.277 L278.604,120.174 L276.826,120.174 L276.826,111.306 C276.826,106.839 276.826,94.317 276.826,88.351 C276.826,81.529 271.295,76 264.475,76 C257.654,76 252.124,81.529 252.124,88.351 C252.124,90.042 252.124,92.259 252.124,94.671 C255.171,95.805 257.346,98.744 257.346,102.18 L257.346,111.149 L255.681,111.149 C255.681,108.843 255.681,105.181 255.681,102.18 C255.681,98.676 252.841,95.836 249.337,95.836 C245.832,95.836 242.992,98.676 242.992,102.18 C242.992,105.246 242.992,109.011 242.992,111.306 L242.992,113.43 C242.992,119.883 246.712,125.463 252.125,128.149 L252.125,145.22 C252.125,145.201 252.125,145.397 252.125,146 L276.826,146 L276.826,129.795 C283.335,129.271 287.008,124.911 287.008,120.174 C287.008,118.149 287.008,114.827 287.008,112.122 C287.008,109.029 284.501,106.522 281.409,106.522 Z" />
        </g>
        <g id="Regular-S">
            <path d="M481.409,106.522 C480.386,106.522 479.429,106.799 478.604,107.277 L478.604,120.174 L476.826,120.174 L476.826,111.306 C476.826,106.839 476.826,94.317 476.826,88.351 C476.826,81.529 471.295,76 464.475,76 C457.654,76 452.124,81.529 452.124,88.351 C452.124,90.042 452.124,92.259 452.124,94.671 C455.171,95.805 457.346,98.744 457.346,102.18 L457.346,111.149 L455.681,111.149 C455.681,108.843 455.681,105.181 455.681,102.18 C455.681,98.676 452.841,95.836 449.337,95.836 C445.832,95.836 442.992,98.676 442.992,102.18 C442.992,105.246 442.992,109.011 442.992,111.306 L442.992,113.43 C442.992,119.883 446.712,125.463 452.125,128.149 L452.125,145.22 C452.125,145.201 452.125,145.397 452.125,146 L476.826,146 L476.826,129.795 C483.335,129.271 487.008,124.911 487.008,120.174 C487.008,118.149 487.008,114.827 487.008,112.122 C487.008,109.029 484.501,106.522 481.409,106.522 Z" />
        </g>
        <g id="Black-S">
            <path d="M681.409,106.522 C680.386,106.522 679.429,106.799 678.604,107.277 L678.604,120.174 L676.826,120.174 L676.826,111.306 C676.826,106.839 676.826,94.317 676.826,88.351 C676.826,81.529 671.295,76 664.475,76 C657.654,76 652.124,81.529 652.124,88.351 C652.124,90.042 652.124,92.259 652.124,94.671 C655.171,95.805 657.346,98.744 657.346,102.18 L657.346,111.149 L655.681,111.149 C655.681,108.843 655.681,105.181 655.681,102.18 C655.681,98.676 652.841,95.836 649.337,95.836 C645.832,95.836 642.992,98.676 642.992,102.18 C642.992,105.246 642.992,109.011 642.992,111.306 L642.992,113.43 C642.992,119.883 646.712,125.463 652.125,128.149 L652.125,145.22 C652.125,145.201 652.125,145.397 652.125,146 L676.826,146 L676.826,129.795 C683.335,129.271 687.008,124.911 687.008,120.174 C687.008,118.149 687.008,114.827 687.008,112.122 C687.008,109.029 684.501,106.522 681.409,106.522 Z" />
        </g>
    </g>
</svg>