<?xml version="1.0" encoding="UTF-8"?>
<svg height="600" width="800" xmlns="http://www.w3.org/2000/svg" xmlns:xlink="http://www.w3.org/1999/xlink">
    <g id="Notes" font-family="'LucidaGrande', 'Lucida Grande', sans-serif" font-size="13">
        <rect fill="white" height="600.0" width="800.0" x="0.0" y="0.0" />
        <g font-size="13">
            <text x="18.0" y="176.0">Small</text>
            <text x="18.0" y="376.0">Medium</text>
            <text x="18.0" y="576.0">Large</text>
        </g>
        <g font-size="9">
            <text x="250.0" y="30.0">Ultralight</text>
            <text x="450.0" y="30.0">Regular</text>
            <text x="650.0" y="30.0">Black</text>
            <text id="template-version" fill="#505050" text-anchor="end" x="785.0" y="575.0">Template v.3.0</text>
            <a href="https://wangchujiang.com/#/app">
                <text fill="#505050" text-anchor="end" x="785.0" y="590.0">https://wangchujiang.com/#/app</text>
            </a>
        </g>
    </g>
    <g id="Guides" stroke="rgb(39, 170, 225)" stroke-width="0.5">
        <path id="Capline-S" d="M18,76 l800,0" />
        <path id="H-reference" d="M85,145.755 L87.685,145.755 L113.369,79.287 L114.052,79.287 L114.052,76 L112.148,76 L85,145.755 Z M95.693,121.536 L130.996,121.536 L130.263,119.313 L96.474,119.313 L95.693,121.536 Z M139.15,145.755 L141.787,145.755 L114.638,76 L113.466,76 L113.466,79.287 L139.15,145.755 Z" stroke="none" />
        <path id="Baseline-S" d="M18,146 l800,0" />
        <path id="left-margin-Ultralight-S" d="M219.999,56 l0,110" />
        <path id="right-margin-Ultralight-S" d="M310.001,56 l0,110" />
        <path id="left-margin-Regular-S" d="M419.999,56 l0,110" />
        <path id="right-margin-Regular-S" d="M510.001,56 l0,110" />
        <path id="left-margin-Black-S" d="M619.999,56 l0,110" />
        <path id="right-margin-Black-S" d="M710.001,56 l0,110" />
        <path id="Capline-M" d="M18,276 l800,0" />
        <path id="Baseline-M" d="M18,346 l800,0" />
        <path id="Capline-L" d="M18,476 l800,0" />
        <path id="Baseline-L" d="M18,546 l800,0" />
    </g>
    <g id="Symbols">
        <g id="Ultralight-S">
            <path d="M236.647,76 C236.587,76 236.526,76 236.465,76.002 L236.464,76.002 C235.036,76.044 233.413,76.768 232.091,78.09 C229.865,80.317 229.331,83.394 230.901,84.964 C232.072,86.135 234.083,86.14 235.952,85.143 C238.321,89.547 242.129,93.597 246.421,96.335 C243.67,99.875 242.029,104.319 242.029,109.139 L244.768,109.139 C244.768,104.904 246.208,101.01 248.628,97.924 L248.944,103.699 C249.37,104.083 249.797,104.465 250.224,104.847 C250.862,102.991 251.761,101.318 252.976,99.96 L254.89,97.824 L255.266,100.667 C255.794,104.652 256.215,108.075 256.718,110.631 C258.987,112.637 261.25,114.627 263.492,116.574 C264.284,116.262 265.159,116.034 266.075,115.826 C268.759,115.218 271.997,114.868 274.876,114.385 C269.354,107.975 263.53,101.409 257.695,94.943 L251.984,94.632 C255.027,92.334 258.818,90.973 262.934,90.973 L262.934,88.234 C258.215,88.234 253.856,89.806 250.354,92.451 C247.614,88.146 243.556,84.321 239.139,81.946 C240.135,80.078 240.135,78.074 238.965,76.904 C238.367,76.306 237.551,76.011 236.646,76 Z M283.508,76.393 L275.984,84.452 L279.95,97.054 L288.981,99.277 L291.385,92.011 L284.775,88.504 L283.538,91.905 L285.827,93.312 L286.218,91.621 L288.36,92.726 L287.516,96.69 L280.312,92.66 L283.758,84.915 L290.075,88.545 L292.682,80.092 Z M257.349,78.219 C253.918,81.569 251.685,85.202 250.544,88.668 C250.683,88.848 250.821,89.03 250.957,89.213 C253.752,87.522 256.909,86.46 260.148,86.058 C258.898,83.309 257.802,80.601 257.349,78.219 M277.761,78.663 C277.43,78.728 271.388,79.847 269.856,80.108 L267.836,94.334 L278.914,106.861 L296.003,104.77 L299.612,89.976 L293.071,87.245 L292.389,89.457 L294.26,90.755 L290.378,102.439 L277.852,99.236 L273.249,84.609 L277.761,78.663 Z M263.142,93.307 C261.965,93.308 260.8,93.416 259.634,93.663 C261.632,95.864 263.623,98.072 265.607,100.286 C265.533,98.372 264.661,95.945 263.503,93.302 C263.379,93.299 263.255,93.295 263.132,93.295 Z M270.333,101.117 C269.534,101.706 268.76,102.329 268.015,102.984 C270.012,105.228 271.998,107.481 273.973,109.745 C275.878,109.37 277.816,108.812 279.685,107.997 C276.544,107.306 272.099,106.724 270.787,104.162 C271.232,103.813 271.685,103.475 272.147,103.148 C271.815,102.778 271.789,102.752 271.419,102.339 C271.032,101.906 270.689,101.518 270.328,101.112 Z M253.148,104.735 C252.068,107.332 251.525,110.663 251.568,114.015 C251.63,118.886 252.343,123.339 254.038,125.668 C251.335,131.473 248.075,137.621 243.876,140.716 L243.876,140.716 C239.992,143.487 236.312,142.827 234.516,140.808 C233.618,139.798 233.133,138.423 233.347,136.667 C233.559,134.926 234.508,132.794 236.607,130.481 C238.36,128.979 239.785,128.389 240.733,128.29 C241.693,128.189 242.177,128.468 242.541,128.924 C243.268,129.836 243.281,131.974 241.445,133.515 L243.205,135.613 C246.004,133.264 246.528,129.533 244.683,127.217 C243.76,126.059 242.186,125.384 240.447,125.566 C238.709,125.748 236.815,126.673 234.749,128.462 L234.689,128.514 L234.635,128.573 C232.207,131.226 230.928,133.88 230.629,136.335 C230.329,138.79 231.05,141.031 232.47,142.628 C235.31,145.821 240.709,146.339 245.466,142.947 L245.466,142.946 C246.342,142.322 247.174,141.638 247.956,140.9 C252.336,139.767 256.597,139.326 261.482,135.414 C258.376,135.557 255.566,135.165 253.636,133.196 C255.6,129.491 257.057,125.457 258.733,121.492 C259.341,120.051 259.976,118.616 260.669,117.2 C260.036,116.646 259.404,116.091 258.773,115.536 C258.695,115.521 258.618,115.506 258.541,115.489 L257.76,117.83 C256.699,117.476 256,116.607 255.504,115.616 C255.007,114.625 254.656,113.427 254.343,112.007 C253.909,110.039 253.554,107.515 253.189,104.771 Z M281.314,116.182 C281.177,116.712 281.023,117.238 280.852,117.757 C282.731,119.979 284.592,122.214 286.437,124.464 C288.676,123.219 290.824,121.627 292.729,119.675 C289.358,119.1 285.269,117.602 281.319,116.188 Z M278.523,116.338 C274.651,117.379 269.981,117.646 266.658,118.399 C264.642,118.856 263.282,119.56 262.933,120.086 C262.759,120.349 262.692,120.564 262.806,121.089 C262.921,121.614 263.294,122.416 264.064,123.44 L264.065,123.441 L264.065,123.442 C266.351,126.487 269.209,126.84 272.156,125.244 C274.697,123.868 277.181,120.805 278.523,116.339 Z M279.871,120.241 C278.633,122.89 276.977,124.999 275.089,126.464 C284.257,134.132 292.805,140.889 300.001,146 C294.872,138.544 287.816,129.659 279.871,120.241 Z" />
        </g>
        <g id="Regular-S">
            <path d="M436.647,76 C436.587,76 436.526,76 436.465,76.002 L436.464,76.002 C435.036,76.044 433.413,76.768 432.091,78.09 C429.865,80.317 429.331,83.394 430.901,84.964 C432.072,86.135 434.083,86.14 435.952,85.143 C438.321,89.547 442.129,93.597 446.421,96.335 C443.67,99.875 442.029,104.319 442.029,109.139 L444.768,109.139 C444.768,104.904 446.208,101.01 448.628,97.924 L448.944,103.699 C449.37,104.083 449.797,104.465 450.224,104.847 C450.862,102.991 451.761,101.318 452.976,99.96 L454.89,97.824 L455.266,100.667 C455.794,104.652 456.215,108.075 456.718,110.631 C458.987,112.637 461.25,114.627 463.492,116.574 C464.284,116.262 465.159,116.034 466.075,115.826 C468.759,115.218 471.997,114.868 474.877,114.385 C469.354,107.975 463.53,101.409 457.695,94.943 L451.984,94.632 C455.027,92.334 458.818,90.973 462.934,90.973 L462.934,88.234 C458.215,88.234 453.856,89.806 450.354,92.451 C447.614,88.146 443.556,84.321 439.139,81.946 C440.135,80.078 440.135,78.074 438.965,76.904 C438.367,76.306 437.551,76.011 436.647,76 Z M483.508,76.393 L475.984,84.452 L479.95,97.054 L488.981,99.277 L491.385,92.011 L484.775,88.504 L483.538,91.905 L485.827,93.312 L486.218,91.621 L488.36,92.726 L487.516,96.69 L480.312,92.66 L483.758,84.915 L490.075,88.545 L492.682,80.092 Z M457.349,78.219 C453.918,81.569 451.685,85.202 450.544,88.668 C450.683,88.848 450.821,89.03 450.957,89.213 C453.752,87.522 456.909,86.46 460.148,86.058 C458.898,83.309 457.802,80.601 457.349,78.219 M477.761,78.663 C477.43,78.728 471.388,79.847 469.856,80.108 L467.836,94.334 L478.914,106.861 L496.003,104.77 L499.612,89.976 L493.071,87.245 L492.389,89.457 L494.26,90.755 L490.378,102.439 L477.852,99.236 L473.249,84.609 L477.761,78.663 Z M463.142,93.307 C461.965,93.308 460.8,93.416 459.634,93.663 C461.632,95.864 463.623,98.072 465.607,100.286 C465.533,98.372 464.661,95.945 463.503,93.302 C463.379,93.299 463.255,93.295 463.132,93.295 Z M470.333,101.117 C469.534,101.706 468.761,102.329 468.015,102.984 C470.013,105.228 471.998,107.481 473.973,109.745 C475.878,109.37 477.816,108.812 479.685,107.997 C476.544,107.306 472.099,106.724 470.787,104.162 C471.232,103.813 471.685,103.475 472.147,103.148 C471.815,102.778 471.789,102.752 471.419,102.339 C471.032,101.906 470.689,101.518 470.328,101.112 Z M453.148,104.735 C452.068,107.332 451.525,110.663 451.568,114.015 C451.63,118.886 452.343,123.339 454.038,125.668 C451.335,131.473 448.075,137.621 443.876,140.716 L443.876,140.716 C439.992,143.487 436.312,142.827 434.516,140.808 C433.618,139.798 433.133,138.423 433.347,136.667 C433.559,134.926 434.508,132.794 436.607,130.481 C438.36,128.979 439.785,128.389 440.733,128.29 C441.693,128.189 442.177,128.468 442.541,128.924 C443.268,129.836 443.281,131.974 441.445,133.515 L443.205,135.613 C446.004,133.264 446.528,129.533 444.683,127.217 C443.76,126.059 442.186,125.384 440.447,125.566 C438.709,125.748 436.815,126.673 434.749,128.462 L434.689,128.514 L434.635,128.573 C432.207,131.226 430.928,133.88 430.629,136.335 C430.329,138.79 431.05,141.031 432.47,142.628 C435.31,145.821 440.709,146.339 445.466,142.947 L445.466,142.946 C446.342,142.322 447.174,141.638 447.956,140.9 C452.336,139.767 456.597,139.326 461.482,135.414 C458.376,135.557 455.566,135.165 453.636,133.196 C455.6,129.491 457.057,125.457 458.733,121.492 C459.341,120.051 459.976,118.616 460.669,117.2 C460.036,116.646 459.404,116.091 458.773,115.536 C458.695,115.521 458.618,115.506 458.541,115.489 L457.76,117.83 C456.699,117.476 456,116.607 455.504,115.616 C455.007,114.625 454.656,113.427 454.343,112.007 C453.909,110.039 453.554,107.515 453.189,104.771 Z M481.314,116.182 C481.177,116.712 481.024,117.238 480.852,117.757 C482.731,119.979 484.592,122.214 486.437,124.464 C488.676,123.219 490.824,121.627 492.729,119.675 C489.358,119.1 485.269,117.602 481.319,116.188 Z M478.523,116.338 C474.651,117.379 469.981,117.646 466.658,118.399 C464.642,118.856 463.282,119.56 462.933,120.086 C462.759,120.349 462.692,120.564 462.806,121.089 C462.921,121.614 463.294,122.416 464.064,123.44 L464.065,123.441 L464.065,123.442 C466.351,126.487 469.209,126.84 472.156,125.244 C474.697,123.868 477.181,120.805 478.523,116.339 Z M479.871,120.241 C478.633,122.89 476.977,124.999 475.089,126.464 C484.257,134.132 492.805,140.889 500.001,146 C494.872,138.544 487.816,129.659 479.871,120.241 Z" />
        </g>
        <g id="Black-S">
            <path d="M636.647,76 C636.587,76 636.526,76 636.465,76.002 L636.464,76.002 C635.036,76.044 633.413,76.768 632.091,78.09 C629.865,80.317 629.331,83.394 630.901,84.964 C632.072,86.135 634.083,86.14 635.952,85.143 C638.321,89.547 642.129,93.597 646.421,96.335 C643.67,99.875 642.029,104.319 642.029,109.139 L644.768,109.139 C644.768,104.904 646.208,101.01 648.628,97.924 L648.944,103.699 C649.37,104.083 649.797,104.465 650.224,104.847 C650.862,102.991 651.761,101.318 652.976,99.96 L654.89,97.824 L655.266,100.667 C655.794,104.652 656.215,108.075 656.718,110.631 C658.987,112.637 661.25,114.627 663.492,116.574 C664.284,116.262 665.159,116.034 666.075,115.826 C668.759,115.218 671.997,114.868 674.876,114.385 C669.354,107.975 663.53,101.409 657.695,94.943 L651.984,94.632 C655.027,92.334 658.818,90.973 662.934,90.973 L662.934,88.234 C658.215,88.234 653.856,89.806 650.354,92.451 C647.614,88.146 643.556,84.321 639.139,81.946 C640.135,80.078 640.135,78.074 638.965,76.904 C638.367,76.306 637.551,76.011 636.646,76 Z M683.508,76.393 L675.984,84.452 L679.95,97.054 L688.981,99.277 L691.385,92.011 L684.775,88.504 L683.538,91.905 L685.827,93.312 L686.218,91.621 L688.36,92.726 L687.516,96.69 L680.312,92.66 L683.758,84.915 L690.075,88.545 L692.682,80.092 Z M657.349,78.219 C653.918,81.569 651.685,85.202 650.544,88.668 C650.683,88.848 650.821,89.03 650.957,89.213 C653.752,87.522 656.909,86.46 660.148,86.058 C658.898,83.309 657.802,80.601 657.349,78.219 M677.761,78.663 C677.43,78.728 671.388,79.847 669.856,80.108 L667.836,94.334 L678.914,106.861 L696.003,104.77 L699.612,89.976 L693.071,87.245 L692.389,89.457 L694.26,90.755 L690.378,102.439 L677.852,99.236 L673.249,84.609 L677.761,78.663 Z M663.142,93.307 C661.965,93.308 660.8,93.416 659.634,93.663 C661.632,95.864 663.623,98.072 665.607,100.286 C665.533,98.372 664.661,95.945 663.503,93.302 C663.379,93.299 663.255,93.295 663.132,93.295 Z M670.333,101.117 C669.534,101.706 668.76,102.329 668.015,102.984 C670.012,105.228 671.998,107.481 673.973,109.745 C675.878,109.37 677.816,108.812 679.685,107.997 C676.544,107.306 672.099,106.724 670.786,104.162 C671.232,103.813 671.685,103.475 672.147,103.148 C671.815,102.778 671.789,102.752 671.419,102.339 C671.032,101.906 670.689,101.518 670.328,101.112 Z M653.148,104.735 C652.068,107.332 651.525,110.663 651.568,114.015 C651.63,118.886 652.343,123.339 654.038,125.668 C651.335,131.473 648.075,137.621 643.876,140.716 L643.875,140.716 C639.992,143.487 636.312,142.827 634.516,140.808 C633.618,139.798 633.133,138.423 633.347,136.667 C633.559,134.926 634.508,132.794 636.607,130.481 C638.36,128.979 639.785,128.389 640.733,128.29 C641.693,128.189 642.177,128.468 642.541,128.924 C643.268,129.836 643.281,131.974 641.445,133.515 L643.205,135.613 C646.004,133.264 646.528,129.533 644.682,127.217 C643.76,126.059 642.186,125.384 640.447,125.566 C638.709,125.748 636.815,126.673 634.749,128.462 L634.689,128.514 L634.635,128.573 C632.207,131.226 630.928,133.88 630.629,136.335 C630.329,138.79 631.05,141.031 632.47,142.628 C635.31,145.821 640.709,146.339 645.466,142.947 L645.466,142.946 C646.342,142.322 647.174,141.638 647.956,140.9 C652.336,139.767 656.597,139.326 661.482,135.414 C658.376,135.557 655.566,135.165 653.636,133.196 C655.6,129.491 657.057,125.457 658.733,121.492 C659.341,120.051 659.976,118.616 660.669,117.2 C660.036,116.646 659.404,116.091 658.773,115.536 C658.695,115.521 658.618,115.506 658.541,115.489 L657.76,117.83 C656.699,117.476 656,116.607 655.504,115.616 C655.007,114.625 654.656,113.427 654.343,112.007 C653.909,110.039 653.554,107.515 653.189,104.771 Z M681.314,116.182 C681.177,116.712 681.023,117.238 680.852,117.757 C682.731,119.979 684.592,122.214 686.437,124.464 C688.676,123.219 690.824,121.627 692.729,119.675 C689.358,119.1 685.269,117.602 681.319,116.188 Z M678.523,116.338 C674.651,117.379 669.981,117.646 666.658,118.399 C664.642,118.856 663.282,119.56 662.933,120.086 C662.759,120.349 662.692,120.564 662.806,121.089 C662.921,121.614 663.294,122.416 664.064,123.44 L664.065,123.441 L664.065,123.442 C666.351,126.487 669.209,126.84 672.156,125.244 C674.697,123.868 677.181,120.805 678.523,116.339 Z M679.871,120.241 C678.633,122.89 676.977,124.999 675.089,126.464 C684.257,134.132 692.805,140.889 700.001,146 C694.872,138.544 687.816,129.659 679.871,120.241 Z" />
        </g>
    </g>
</svg>