<?xml version="1.0" encoding="UTF-8"?>
<svg height="600" width="800" xmlns="http://www.w3.org/2000/svg" xmlns:xlink="http://www.w3.org/1999/xlink">
    <g id="Notes" font-family="'LucidaGrande', 'Lucida Grande', sans-serif" font-size="13">
        <rect fill="white" height="600.0" width="800.0" x="0.0" y="0.0" />
        <g font-size="13">
            <text x="18.0" y="176.0">Small</text>
            <text x="18.0" y="376.0">Medium</text>
            <text x="18.0" y="576.0">Large</text>
        </g>
        <g font-size="9">
            <text x="250.0" y="30.0">Ultralight</text>
            <text x="450.0" y="30.0">Regular</text>
            <text x="650.0" y="30.0">Black</text>
            <text id="template-version" fill="#505050" text-anchor="end" x="785.0" y="575.0">Template v.3.0</text>
            <a href="https://wangchujiang.com/#/app">
                <text fill="#505050" text-anchor="end" x="785.0" y="590.0">https://wangchujiang.com/#/app</text>
            </a>
        </g>
    </g>
    <g id="Guides" stroke="rgb(39, 170, 225)" stroke-width="0.5">
        <path id="Capline-S" d="M18,76 l800,0" />
        <path id="H-reference" d="M85,145.755 L87.685,145.755 L113.369,79.287 L114.052,79.287 L114.052,76 L112.148,76 L85,145.755 Z M95.693,121.536 L130.996,121.536 L130.263,119.313 L96.474,119.313 L95.693,121.536 Z M139.15,145.755 L141.787,145.755 L114.638,76 L113.466,76 L113.466,79.287 L139.15,145.755 Z" stroke="none" />
        <path id="Baseline-S" d="M18,146 l800,0" />
        <path id="left-margin-Ultralight-S" d="M219.908,56 l0,110" />
        <path id="right-margin-Ultralight-S" d="M310.092,56 l0,110" />
        <path id="left-margin-Regular-S" d="M419.908,56 l0,110" />
        <path id="right-margin-Regular-S" d="M510.092,56 l0,110" />
        <path id="left-margin-Black-S" d="M619.908,56 l0,110" />
        <path id="right-margin-Black-S" d="M710.092,56 l0,110" />
        <path id="Capline-M" d="M18,276 l800,0" />
        <path id="Baseline-M" d="M18,346 l800,0" />
        <path id="Capline-L" d="M18,476 l800,0" />
        <path id="Baseline-L" d="M18,546 l800,0" />
    </g>
    <g id="Symbols">
        <g id="Ultralight-S">
            <path d="M265.251,76 C264.46,75.998 263.668,76.01 262.877,76.037 C256.362,76.258 246.789,77.374 239.734,81.157 C236.206,83.048 233.329,85.567 231.619,88.937 C230.151,91.832 229.511,95.404 230.162,99.928 C241.964,90.408 257.253,88.809 270.73,90.723 C277.828,91.731 284.447,93.708 289.877,96.048 C294.054,97.848 297.511,99.834 299.989,101.852 C300.678,95.277 297.907,89.115 292.217,84.368 C286.227,79.37 276.959,76.039 265.251,76 Z M261.195,92.782 C250.438,92.726 239.464,95.45 230.794,102.993 C233.084,106.455 241.524,108.657 251.727,109.692 C252.395,108.018 253.145,106.411 253.969,104.893 C251.643,105.648 248.954,105.836 246.4,105.668 C244.462,105.54 242.603,105.185 241.02,104.588 C239.437,103.991 238.064,103.18 237.308,101.822 L239.731,100.473 C239.966,100.895 240.755,101.529 241.997,101.997 C243.24,102.466 244.87,102.789 246.581,102.901 C249.715,103.107 253.119,102.523 255.034,101.373 C253.64,100.609 252.496,99.619 251.84,98.295 L254.324,97.067 C254.721,97.869 255.775,98.754 257.359,99.426 C257.944,99.674 258.594,99.892 259.288,100.078 L267.856,100.565 C270.552,100.194 273.003,99.334 274.505,98.035 L276.317,100.13 C275.185,101.109 273.828,101.851 272.34,102.389 C272.665,102.584 273.051,102.774 273.499,102.942 C274.742,103.411 276.371,103.734 278.082,103.846 C281.504,104.071 285.25,103.354 287.026,101.988 L288.717,104.184 C285.963,106.304 281.777,106.868 277.901,106.613 C275.964,106.485 274.104,106.13 272.522,105.533 C272.203,105.413 271.894,105.413 271.596,105.142 C271.526,106.858 271.5,108.576 271.518,110.293 C284.413,109.849 295.969,107.792 298.561,104.273 C296.383,102.446 292.971,100.398 288.78,98.592 C283.582,96.352 277.175,94.437 270.34,93.466 C267.349,93.041 264.281,92.797 261.195,92.781 Z M258.525,102.81 C251.754,112.5 248.588,129.055 252.957,141.23 C253.629,143.1 255.198,144.367 257.398,145.154 C259.597,145.942 262.362,146.165 264.956,145.884 C267.55,145.603 269.974,144.804 271.465,143.79 C272.211,143.283 272.709,142.735 272.958,142.238 C273.208,141.74 273.265,141.306 273.088,140.705 C269.682,129.165 268.228,115.252 268.932,103.402 L258.525,102.81 Z" />
        </g>
        <g id="Regular-S">
            <path d="M465.251,76 C464.46,75.998 463.668,76.01 462.877,76.037 C456.362,76.258 446.789,77.374 439.734,81.157 C436.206,83.048 433.329,85.567 431.619,88.937 C430.151,91.832 429.511,95.404 430.162,99.928 C441.964,90.408 457.253,88.809 470.73,90.723 C477.828,91.731 484.447,93.708 489.877,96.048 C494.054,97.848 497.511,99.834 499.989,101.852 C500.678,95.277 497.907,89.115 492.217,84.368 C486.227,79.37 476.959,76.039 465.251,76 Z M461.195,92.782 C450.438,92.726 439.464,95.45 430.794,102.993 C433.084,106.455 441.524,108.657 451.727,109.692 C452.395,108.018 453.145,106.411 453.969,104.893 C451.643,105.648 448.954,105.836 446.4,105.668 C444.462,105.54 442.603,105.185 441.02,104.588 C439.437,103.991 438.064,103.18 437.308,101.822 L439.732,100.473 C439.966,100.895 440.755,101.529 441.997,101.997 C443.24,102.466 444.87,102.789 446.581,102.901 C449.715,103.107 453.119,102.523 455.034,101.373 C453.64,100.609 452.496,99.619 451.84,98.295 L454.324,97.067 C454.721,97.869 455.775,98.754 457.359,99.426 C457.944,99.674 458.594,99.892 459.288,100.078 L467.856,100.565 C470.552,100.194 473.003,99.334 474.505,98.035 L476.317,100.13 C475.185,101.109 473.828,101.851 472.34,102.389 C472.665,102.584 473.052,102.774 473.499,102.942 C474.742,103.411 476.371,103.734 478.082,103.846 C481.504,104.071 485.25,103.354 487.026,101.988 L488.717,104.184 C485.963,106.304 481.777,106.868 477.902,106.613 C475.964,106.485 474.104,106.13 472.522,105.533 C472.203,105.413 471.894,105.413 471.596,105.142 C471.526,106.858 471.5,108.576 471.518,110.293 C484.413,109.849 495.969,107.792 498.561,104.273 C496.383,102.446 492.971,100.398 488.78,98.592 C483.582,96.352 477.176,94.437 470.34,93.466 C467.349,93.041 464.281,92.797 461.195,92.781 Z M458.525,102.81 C451.754,112.5 448.588,129.055 452.957,141.23 C453.629,143.1 455.198,144.367 457.398,145.154 C459.597,145.942 462.362,146.165 464.956,145.884 C467.55,145.603 469.974,144.804 471.465,143.79 C472.211,143.283 472.709,142.735 472.959,142.238 C473.208,141.74 473.265,141.306 473.088,140.705 C469.682,129.165 468.228,115.252 468.932,103.402 L458.525,102.81 Z" />
        </g>
        <g id="Black-S">
            <path d="M665.251,76 C664.46,75.998 663.668,76.01 662.877,76.037 C656.362,76.258 646.789,77.374 639.734,81.157 C636.206,83.048 633.329,85.567 631.619,88.937 C630.151,91.832 629.511,95.404 630.162,99.928 C641.964,90.408 657.253,88.809 670.73,90.723 C677.828,91.731 684.447,93.708 689.877,96.048 C694.054,97.848 697.511,99.834 699.989,101.852 C700.678,95.277 697.907,89.115 692.217,84.368 C686.227,79.37 676.959,76.039 665.251,76 Z M661.195,92.782 C650.438,92.726 639.464,95.45 630.794,102.993 C633.084,106.455 641.524,108.657 651.727,109.692 C652.395,108.018 653.145,106.411 653.969,104.893 C651.643,105.648 648.954,105.836 646.4,105.668 C644.462,105.54 642.603,105.185 641.02,104.588 C639.437,103.991 638.064,103.18 637.308,101.822 L639.732,100.473 C639.966,100.895 640.755,101.529 641.997,101.997 C643.24,102.466 644.87,102.789 646.581,102.901 C649.715,103.107 653.119,102.523 655.034,101.373 C653.641,100.609 652.496,99.619 651.84,98.295 L654.324,97.067 C654.721,97.869 655.775,98.754 657.359,99.426 C657.944,99.674 658.594,99.892 659.288,100.078 L667.856,100.565 C670.552,100.194 673.003,99.334 674.505,98.035 L676.317,100.13 C675.185,101.109 673.828,101.851 672.34,102.389 C672.665,102.584 673.052,102.774 673.499,102.942 C674.742,103.411 676.371,103.734 678.082,103.846 C681.504,104.071 685.25,103.354 687.026,101.988 L688.717,104.184 C685.963,106.304 681.777,106.868 677.901,106.613 C675.964,106.485 674.104,106.13 672.522,105.533 C672.203,105.413 671.894,105.413 671.596,105.142 C671.526,106.858 671.5,108.576 671.518,110.293 C684.413,109.849 695.969,107.792 698.561,104.273 C696.383,102.446 692.971,100.398 688.78,98.592 C683.582,96.352 677.175,94.437 670.34,93.466 C667.349,93.041 664.281,92.797 661.195,92.781 Z M658.525,102.81 C651.754,112.5 648.588,129.055 652.957,141.23 C653.629,143.1 655.198,144.367 657.398,145.154 C659.597,145.942 662.362,146.165 664.956,145.884 C667.55,145.603 669.974,144.804 671.465,143.79 C672.211,143.283 672.709,142.735 672.958,142.238 C673.208,141.74 673.265,141.306 673.088,140.705 C669.682,129.165 668.228,115.252 668.932,103.402 L658.525,102.81 Z" />
        </g>
    </g>
</svg>