<?xml version="1.0" encoding="UTF-8"?>
<svg height="600" width="800" xmlns="http://www.w3.org/2000/svg" xmlns:xlink="http://www.w3.org/1999/xlink">
    <g id="Notes" font-family="'LucidaGrande', 'Lucida Grande', sans-serif" font-size="13">
        <rect fill="white" height="600.0" width="800.0" x="0.0" y="0.0" />
        <g font-size="13">
            <text x="18.0" y="176.0">Small</text>
            <text x="18.0" y="376.0">Medium</text>
            <text x="18.0" y="576.0">Large</text>
        </g>
        <g font-size="9">
            <text x="250.0" y="30.0">Ultralight</text>
            <text x="450.0" y="30.0">Regular</text>
            <text x="650.0" y="30.0">Black</text>
            <text id="template-version" fill="#505050" text-anchor="end" x="785.0" y="575.0">Template v.3.0</text>
            <a href="https://wangchujiang.com/#/app">
                <text fill="#505050" text-anchor="end" x="785.0" y="590.0">https://wangchujiang.com/#/app</text>
            </a>
        </g>
    </g>
    <g id="Guides" stroke="rgb(39, 170, 225)" stroke-width="0.5">
        <path id="Capline-S" d="M18,76 l800,0" />
        <path id="H-reference" d="M85,145.755 L87.685,145.755 L113.369,79.287 L114.052,79.287 L114.052,76 L112.148,76 L85,145.755 Z M95.693,121.536 L130.996,121.536 L130.263,119.313 L96.474,119.313 L95.693,121.536 Z M139.15,145.755 L141.787,145.755 L114.638,76 L113.466,76 L113.466,79.287 L139.15,145.755 Z" stroke="none" />
        <path id="Baseline-S" d="M18,146 l800,0" />
        <path id="left-margin-Ultralight-S" d="M216.112,56 l0,110" />
        <path id="right-margin-Ultralight-S" d="M313.888,56 l0,110" />
        <path id="left-margin-Regular-S" d="M416.112,56 l0,110" />
        <path id="right-margin-Regular-S" d="M513.888,56 l0,110" />
        <path id="left-margin-Black-S" d="M616.112,56 l0,110" />
        <path id="right-margin-Black-S" d="M713.888,56 l0,110" />
        <path id="Capline-M" d="M18,276 l800,0" />
        <path id="Baseline-M" d="M18,346 l800,0" />
        <path id="Capline-L" d="M18,476 l800,0" />
        <path id="Baseline-L" d="M18,546 l800,0" />
    </g>
    <g id="Symbols">
        <g id="Ultralight-S">
            <path d="M294.301,117.359 C297.588,114.122 299.647,109.65 299.647,104.683 C299.647,94.812 291.61,86.812 281.695,86.812 C281.627,86.812 281.563,86.821 281.496,86.823 C278.651,80.247 272.168,75.993 265.003,76 C257.837,75.993 251.353,80.247 248.507,86.823 C248.44,86.821 248.374,86.812 248.307,86.812 C238.395,86.812 230.357,94.812 230.357,104.683 C230.357,109.65 232.415,114.122 235.703,117.359 C230.252,118.09 226.112,118.102 226.112,118.102 C226.112,118.102 227.251,149.376 250.128,145.7 C258.1,144.418 262.685,140.743 265.001,138.167 C267.316,140.741 271.9,144.416 279.877,145.7 C302.751,149.374 303.888,118.102 303.888,118.102 C303.888,118.102 299.751,118.09 294.301,117.359 M290.846,119.113 C291.404,120.727 291.685,122.389 291.685,124.048 C291.685,132.446 284.821,139.279 276.387,139.279 C272.854,139.279 269.409,138.053 266.685,135.823 L265.001,134.447 L263.317,135.823 C260.578,138.057 257.151,139.278 253.616,139.279 C245.181,139.279 238.317,132.446 238.317,124.048 C238.317,122.39 238.6,120.727 239.156,119.113 L239.741,117.415 L238.374,116.249 C234.974,113.369 233.012,109.139 233.008,104.683 C233.008,96.302 239.841,89.483 248.25,89.451 C248.319,89.457 248.388,89.457 248.457,89.462 L250.241,89.496 L250.944,87.865 C253.363,82.261 258.88,78.641 265.003,78.641 C271.125,78.641 276.642,82.261 279.061,87.865 L279.765,89.496 L281.548,89.462 C281.615,89.46 281.684,89.46 281.754,89.451 C290.165,89.484 296.997,96.304 296.997,104.683 C296.997,109.129 295.041,113.343 291.631,116.249 L290.262,117.415 Z" />
            <path d="M251.245,99.457 L253.07,99.636 C253.001,99.57 252.931,99.57 252.859,99.442 C252.731,99.333 252.611,99.198 252.487,99.075 L251.088,99.267 Z M255.466,101.859 C255.22,101.634 254.977,101.407 254.735,101.178 L254.735,101.896 L255.045,102.203 Z M249.836,94.634 C249.822,94.593 249.81,94.593 249.799,94.515 L248.933,94.634 Z M249.346,91.918 C248.935,91.997 248.53,91.997 248.132,92.205 L249.354,92.038 C249.355,91.997 249.346,91.958 249.346,91.918 M265.052,106.543 C265.036,106.277 265.035,106.01 265.047,105.743 L264.341,105.611 Z M275.933,109.463 C272.314,107.382 270.237,109.53 267.012,109.116 L267.243,109.418 C267.956,110.354 267.834,111.226 267.328,111.817 C267.898,113.505 267.322,115.889 268.351,118.263 C269.855,121.733 270.268,126.158 268.971,129.416 C268.486,130.63 267.681,131.722 266.688,132.699 C268.864,134.004 271.355,134.694 273.892,134.693 C280.085,134.693 285.155,130.422 287.492,125.297 C288.371,123.37 288.569,119.456 286.814,116.676 C284.666,113.285 280.391,112.03 275.933,109.463 M252.232,103.674 L252.334,104.416 L253.082,103.806 L252.541,103.267 Z" />
            <path d="M255.544,114.667 C258.294,113.88 259.653,111.241 262.582,110.034 L258.112,104.158 L258.022,105.059 L258.618,105.508 L257.882,106.475 L257.79,107.392 L258.844,108.667 L256.889,110.263 L255.286,108.319 L256.568,107.271 L256.582,107.128 L255.077,105.992 L256.078,104.676 L255.864,103.118 L255.782,103.184 L254.12,104.838 L253.956,104.675 L253.061,105.405 L252.898,107.051 L250.384,106.803 L250.506,105.577 L249.958,105.652 L249.613,103.161 L251.252,102.934 L252.846,100.842 L251.125,100.673 L249.847,101.721 L249.834,101.705 L249.834,102.029 L247.306,102.029 L247.306,100.128 L246.229,99.315 L247.754,97.31 L249.078,98.306 L250.353,98.133 L251.129,97.361 C250.819,96.881 250.546,96.378 250.311,95.858 L247.442,95.858 L246.269,97.026 L244.483,95.246 L246.269,93.467 L247.442,94.633 L248.435,94.633 L248.098,92.216 C242.241,93.89 237.952,99.25 237.952,105.617 C237.952,108.539 239.707,114.738 244.26,116.259 C247.398,117.308 252.19,115.629 255.544,114.667 M260.158,98.025 L259.013,98.181 L259.397,98.647 Z M259.15,91.099 L258.915,91.336 L259.238,91.728 Z M260.797,95.858 L258.928,95.858 L258.818,96.972 L261.544,96.602 Z M265.468,103.252 L264.417,101.975 L263.187,101.854 L263.456,103.804 L263.012,103.863 L264.051,105.231 C264.39,105.341 264.727,105.341 265.064,105.567 C265.061,105.624 265.048,105.686 265.045,105.743 C265.08,104.959 265.254,104.102 265.513,103.214 Z M253.506,89.247 C253.361,89.457 253.199,89.655 253.063,89.871 C253.015,90.074 252.982,90.284 252.943,90.492 L253.506,89.759 Z M257.08,94.634 L257.576,94.634 L257.85,94.272 L257.874,94.038 L257.12,93.124 L256.341,93.899 Z" />
            <path d="M255.474,91.336 L255.68,92.828 L258.407,90.11 L258.407,88.46 L260.935,88.46 L260.935,90.45 L261.597,90.359 L261.945,92.852 L260.346,93.071 L260.379,93.11 L260.112,93.327 L259.117,94.634 L260.797,94.634 L261.971,93.469 L262.9,94.394 L265.283,94.626 L265.096,96.529 L265.327,96.702 L265.042,97.076 L265.036,97.129 L265.003,97.125 L263.798,98.704 L262.48,97.71 L260.27,99.514 L260.935,99.514 L260.935,100.405 L264.536,100.76 L265.819,99.712 L266.514,100.554 C268.334,96.578 271.435,92.601 273.482,91.423 C274.643,90.757 275.882,90.404 277.163,90.264 C274.666,85.905 270.025,83.218 265.001,83.223 C261.307,83.223 257.957,84.655 255.456,86.979 L255.905,87.427 L254.733,88.595 L254.733,88.704 L256.476,90.023 Z M253.506,92.297 L253.506,90.933 L252.941,90.508 C252.788,91.331 252.721,92.167 252.74,93.003 L252.767,93.032 Z M267.004,118.559 C266.335,116.138 267.167,113.916 266.912,112.187 C266.69,112.334 266.444,112.442 266.186,112.506 L266.176,112.51 C266.054,112.538 265.93,112.557 265.805,112.567 L265.766,112.572 C265.651,112.577 265.536,112.573 265.421,112.563 L265.345,112.559 C265.241,112.545 265.138,112.522 265.038,112.492 C265,112.485 264.965,112.485 264.93,112.466 C264.834,112.434 264.743,112.388 264.65,112.344 C264.611,112.323 264.568,112.311 264.531,112.288 C264.439,112.237 264.352,112.169 264.265,112.101 C264.23,112.074 264.191,112.052 264.157,112.022 C264.034,111.913 263.921,111.792 263.82,111.662 L262.844,110.379 C260.056,111.97 259.09,114.817 256.454,115.988 C253.271,117.401 248.778,119.595 245.501,119.122 C244.335,118.95 243.36,118.365 242.481,117.556 C242.229,118.598 242.1,119.666 242.096,120.738 C242.096,128.443 248.37,134.693 256.113,134.693 C258.581,134.693 260.897,134.05 262.913,132.934 C264.222,132.041 265.336,130.97 266.067,129.692 C267.806,126.643 268.011,122.205 267.004,118.559" />
            <path d="M283.331,92.704 C283.215,92.67 283.101,92.622 282.986,92.59 C280.57,91.913 278.142,91.756 275.827,92.687 C273.5,93.627 269.569,97.518 267.245,101.439 L267.425,101.656 L266.861,102.115 C266.186,103.355 265.684,104.583 265.474,105.703 C265.398,106.117 265.363,106.537 265.368,106.958 L266.852,108.906 C270.228,108.963 271.98,106.433 275.929,108.023 C280.699,109.948 284.741,110.63 287.337,113.692 C287.786,114.223 288.088,114.663 288.325,115.074 C290.721,112.507 292.054,109.128 292.056,105.617 C292.053,99.778 288.446,94.783 283.331,92.704" />
        </g>
        <g id="Regular-S">
            <path d="M494.301,117.359 C497.588,114.122 499.647,109.65 499.647,104.683 C499.647,94.812 491.61,86.812 481.695,86.812 C481.627,86.812 481.563,86.821 481.496,86.823 C478.651,80.247 472.168,75.993 465.003,76 C457.837,75.993 451.353,80.247 448.507,86.823 C448.44,86.821 448.374,86.812 448.307,86.812 C438.395,86.812 430.357,94.812 430.357,104.683 C430.357,109.65 432.415,114.122 435.703,117.359 C430.252,118.09 426.112,118.102 426.112,118.102 C426.112,118.102 427.251,149.376 450.128,145.7 C458.1,144.418 462.685,140.743 465.001,138.167 C467.316,140.741 471.9,144.416 479.877,145.7 C502.751,149.374 503.888,118.102 503.888,118.102 C503.888,118.102 499.751,118.09 494.301,117.359 M490.846,119.113 C491.404,120.727 491.685,122.389 491.685,124.048 C491.685,132.446 484.821,139.279 476.387,139.279 C472.854,139.279 469.409,138.053 466.685,135.823 L465.001,134.447 L463.317,135.823 C460.578,138.057 457.151,139.278 453.616,139.279 C445.181,139.279 438.317,132.446 438.317,124.048 C438.317,122.39 438.6,120.727 439.156,119.113 L439.741,117.415 L438.374,116.249 C434.974,113.369 433.012,109.139 433.008,104.683 C433.008,96.302 439.841,89.483 448.25,89.451 C448.319,89.457 448.388,89.457 448.457,89.462 L450.241,89.496 L450.944,87.865 C453.363,82.261 458.88,78.641 465.003,78.641 C471.125,78.641 476.642,82.261 479.061,87.865 L479.765,89.496 L481.548,89.462 C481.615,89.46 481.684,89.46 481.754,89.451 C490.165,89.484 496.997,96.304 496.997,104.683 C496.997,109.129 495.041,113.343 491.631,116.249 L490.262,117.415 Z" />
            <path d="M451.245,99.457 L453.07,99.636 C453.001,99.57 452.931,99.57 452.859,99.442 C452.731,99.333 452.611,99.198 452.487,99.075 L451.088,99.267 Z M455.466,101.859 C455.22,101.634 454.977,101.407 454.735,101.178 L454.735,101.896 L455.045,102.203 Z M449.836,94.634 C449.822,94.593 449.81,94.593 449.799,94.515 L448.933,94.634 Z M449.346,91.918 C448.935,91.997 448.53,91.997 448.132,92.205 L449.354,92.038 C449.355,91.997 449.346,91.958 449.346,91.918 M465.052,106.543 C465.036,106.277 465.035,106.01 465.047,105.743 L464.341,105.611 Z M475.933,109.463 C472.314,107.382 470.237,109.53 467.012,109.116 L467.243,109.418 C467.956,110.354 467.834,111.226 467.328,111.817 C467.898,113.505 467.322,115.889 468.351,118.263 C469.855,121.733 470.268,126.158 468.971,129.416 C468.486,130.63 467.681,131.722 466.688,132.699 C468.864,134.004 471.355,134.694 473.892,134.693 C480.085,134.693 485.155,130.422 487.492,125.297 C488.371,123.37 488.569,119.456 486.814,116.676 C484.666,113.285 480.391,112.03 475.933,109.463 M452.232,103.674 L452.334,104.416 L453.082,103.806 L452.541,103.267 Z" />
            <path d="M455.544,114.667 C458.294,113.88 459.653,111.241 462.582,110.034 L458.112,104.158 L458.022,105.059 L458.618,105.508 L457.882,106.475 L457.79,107.392 L458.844,108.667 L456.889,110.263 L455.286,108.319 L456.568,107.271 L456.582,107.128 L455.077,105.992 L456.078,104.676 L455.864,103.118 L455.782,103.184 L454.12,104.838 L453.956,104.675 L453.061,105.405 L452.898,107.051 L450.384,106.803 L450.506,105.577 L449.958,105.652 L449.613,103.161 L451.252,102.934 L452.846,100.842 L451.125,100.673 L449.847,101.721 L449.834,101.705 L449.834,102.029 L447.306,102.029 L447.306,100.128 L446.229,99.315 L447.754,97.31 L449.078,98.306 L450.353,98.133 L451.129,97.361 C450.819,96.881 450.546,96.378 450.311,95.858 L447.442,95.858 L446.269,97.026 L444.483,95.246 L446.269,93.467 L447.442,94.633 L448.435,94.633 L448.098,92.216 C442.241,93.89 437.952,99.25 437.952,105.617 C437.952,108.539 439.707,114.738 444.26,116.259 C447.398,117.308 452.19,115.629 455.544,114.667 M460.158,98.025 L459.013,98.181 L459.397,98.647 Z M459.15,91.099 L458.915,91.336 L459.238,91.728 Z M460.797,95.858 L458.928,95.858 L458.818,96.972 L461.544,96.602 Z M465.468,103.252 L464.417,101.975 L463.187,101.854 L463.456,103.804 L463.012,103.863 L464.051,105.231 C464.39,105.341 464.727,105.341 465.064,105.567 C465.061,105.624 465.048,105.686 465.045,105.743 C465.08,104.959 465.254,104.102 465.513,103.214 Z M453.506,89.247 C453.361,89.457 453.199,89.655 453.063,89.871 C453.015,90.074 452.982,90.284 452.943,90.492 L453.506,89.759 Z M457.08,94.634 L457.576,94.634 L457.85,94.272 L457.874,94.038 L457.12,93.124 L456.341,93.899 Z" />
            <path d="M455.474,91.336 L455.68,92.828 L458.407,90.11 L458.407,88.46 L460.935,88.46 L460.935,90.45 L461.597,90.359 L461.945,92.852 L460.346,93.071 L460.379,93.11 L460.112,93.327 L459.117,94.634 L460.797,94.634 L461.971,93.469 L462.9,94.394 L465.283,94.626 L465.096,96.529 L465.327,96.702 L465.042,97.076 L465.036,97.129 L465.003,97.125 L463.798,98.704 L462.48,97.71 L460.27,99.514 L460.935,99.514 L460.935,100.405 L464.536,100.76 L465.819,99.712 L466.514,100.554 C468.334,96.578 471.435,92.601 473.482,91.423 C474.643,90.757 475.882,90.404 477.163,90.264 C474.666,85.905 470.025,83.218 465.001,83.223 C461.307,83.223 457.957,84.655 455.456,86.979 L455.905,87.427 L454.733,88.595 L454.733,88.704 L456.476,90.023 Z M453.506,92.297 L453.506,90.933 L452.941,90.508 C452.788,91.331 452.721,92.167 452.74,93.003 L452.767,93.032 Z M467.004,118.559 C466.335,116.138 467.167,113.916 466.912,112.187 C466.69,112.334 466.444,112.442 466.186,112.506 L466.176,112.51 C466.054,112.538 465.93,112.557 465.805,112.567 L465.766,112.572 C465.651,112.577 465.536,112.573 465.421,112.563 L465.345,112.559 C465.241,112.545 465.138,112.522 465.038,112.492 C465,112.485 464.965,112.485 464.93,112.466 C464.834,112.434 464.743,112.388 464.65,112.344 C464.611,112.323 464.568,112.311 464.531,112.288 C464.439,112.237 464.352,112.169 464.265,112.101 C464.23,112.074 464.191,112.052 464.157,112.022 C464.034,111.913 463.921,111.792 463.82,111.662 L462.844,110.379 C460.056,111.97 459.09,114.817 456.454,115.988 C453.271,117.401 448.778,119.595 445.501,119.122 C444.335,118.95 443.36,118.365 442.481,117.556 C442.229,118.598 442.1,119.666 442.096,120.738 C442.096,128.443 448.37,134.693 456.113,134.693 C458.581,134.693 460.897,134.05 462.913,132.934 C464.222,132.041 465.336,130.97 466.067,129.692 C467.806,126.643 468.011,122.205 467.004,118.559" />
            <path d="M483.331,92.704 C483.215,92.67 483.101,92.622 482.986,92.59 C480.57,91.913 478.142,91.756 475.827,92.687 C473.5,93.627 469.569,97.518 467.245,101.439 L467.425,101.656 L466.861,102.115 C466.186,103.355 465.684,104.583 465.474,105.703 C465.398,106.117 465.363,106.537 465.368,106.958 L466.852,108.906 C470.228,108.963 471.98,106.433 475.929,108.023 C480.699,109.948 484.741,110.63 487.337,113.692 C487.786,114.223 488.088,114.663 488.325,115.074 C490.721,112.507 492.054,109.128 492.056,105.617 C492.053,99.778 488.446,94.783 483.331,92.704" />
        </g>
        <g id="Black-S">
            <path d="M694.301,117.359 C697.588,114.122 699.647,109.65 699.647,104.683 C699.647,94.812 691.61,86.812 681.695,86.812 C681.627,86.812 681.562,86.821 681.496,86.823 C678.651,80.247 672.168,75.993 665.003,76 C657.837,75.993 651.353,80.247 648.507,86.823 C648.44,86.821 648.374,86.812 648.307,86.812 C638.395,86.812 630.357,94.812 630.357,104.683 C630.357,109.65 632.415,114.122 635.703,117.359 C630.252,118.09 626.112,118.102 626.112,118.102 C626.112,118.102 627.251,149.376 650.128,145.7 C658.1,144.418 662.685,140.743 665.001,138.167 C667.316,140.741 671.9,144.416 679.877,145.7 C702.751,149.374 703.888,118.102 703.888,118.102 C703.888,118.102 699.751,118.09 694.301,117.359 M690.846,119.113 C691.404,120.727 691.685,122.389 691.685,124.048 C691.685,132.446 684.821,139.279 676.386,139.279 C672.854,139.279 669.409,138.053 666.685,135.823 L665.001,134.447 L663.317,135.823 C660.578,138.057 657.151,139.278 653.616,139.279 C645.181,139.279 638.317,132.446 638.317,124.048 C638.317,122.39 638.6,120.727 639.156,119.113 L639.741,117.415 L638.374,116.249 C634.974,113.369 633.012,109.139 633.008,104.683 C633.008,96.302 639.841,89.483 648.249,89.451 C648.319,89.457 648.388,89.457 648.457,89.462 L650.241,89.496 L650.944,87.865 C653.363,82.261 658.88,78.641 665.003,78.641 C671.125,78.641 676.642,82.261 679.061,87.865 L679.765,89.496 L681.548,89.462 C681.615,89.46 681.683,89.46 681.754,89.451 C690.165,89.484 696.997,96.304 696.997,104.683 C696.997,109.129 695.041,113.343 691.631,116.249 L690.262,117.415 Z" />
            <path d="M651.245,99.457 L653.07,99.636 C653.001,99.57 652.931,99.57 652.859,99.442 C652.731,99.333 652.611,99.198 652.487,99.075 L651.088,99.267 Z M655.466,101.859 C655.22,101.634 654.977,101.407 654.735,101.178 L654.735,101.896 L655.045,102.203 Z M649.836,94.634 C649.822,94.593 649.81,94.593 649.799,94.515 L648.933,94.634 Z M649.346,91.918 C648.935,91.997 648.53,91.997 648.132,92.205 L649.354,92.038 C649.355,91.997 649.346,91.958 649.346,91.918 M665.052,106.543 C665.036,106.277 665.035,106.01 665.047,105.743 L664.341,105.611 Z M675.933,109.463 C672.314,107.382 670.237,109.53 667.012,109.116 L667.243,109.418 C667.956,110.354 667.834,111.226 667.328,111.817 C667.898,113.505 667.322,115.889 668.351,118.263 C669.855,121.733 670.268,126.158 668.97,129.416 C668.486,130.63 667.681,131.722 666.688,132.699 C668.864,134.004 671.355,134.694 673.892,134.693 C680.085,134.693 685.154,130.422 687.492,125.297 C688.371,123.37 688.569,119.456 686.814,116.676 C684.666,113.285 680.391,112.03 675.933,109.463 M652.232,103.674 L652.334,104.416 L653.082,103.806 L652.541,103.267 Z" />
            <path d="M655.544,114.667 C658.294,113.88 659.653,111.241 662.582,110.034 L658.112,104.158 L658.022,105.059 L658.618,105.508 L657.882,106.475 L657.79,107.392 L658.844,108.667 L656.889,110.263 L655.286,108.319 L656.568,107.271 L656.582,107.128 L655.077,105.992 L656.078,104.676 L655.864,103.118 L655.782,103.184 L654.12,104.838 L653.956,104.675 L653.061,105.405 L652.898,107.051 L650.384,106.803 L650.506,105.577 L649.958,105.652 L649.613,103.161 L651.252,102.934 L652.846,100.842 L651.125,100.673 L649.846,101.721 L649.834,101.705 L649.834,102.029 L647.306,102.029 L647.306,100.128 L646.229,99.315 L647.754,97.31 L649.078,98.306 L650.353,98.133 L651.129,97.361 C650.819,96.881 650.546,96.378 650.311,95.858 L647.442,95.858 L646.269,97.026 L644.482,95.246 L646.269,93.467 L647.442,94.633 L648.435,94.633 L648.098,92.216 C642.241,93.89 637.952,99.25 637.952,105.617 C637.952,108.539 639.707,114.738 644.26,116.259 C647.398,117.308 652.19,115.629 655.544,114.667 M660.158,98.025 L659.012,98.181 L659.397,98.647 Z M659.15,91.099 L658.915,91.336 L659.238,91.728 Z M660.797,95.858 L658.928,95.858 L658.818,96.972 L661.544,96.602 Z M665.468,103.252 L664.417,101.975 L663.186,101.854 L663.456,103.804 L663.011,103.863 L664.051,105.231 C664.39,105.341 664.727,105.341 665.063,105.567 C665.061,105.624 665.048,105.686 665.045,105.743 C665.08,104.959 665.254,104.102 665.513,103.214 Z M653.506,89.247 C653.361,89.457 653.199,89.655 653.063,89.871 C653.015,90.074 652.982,90.284 652.943,90.492 L653.506,89.759 Z M657.08,94.634 L657.576,94.634 L657.85,94.272 L657.874,94.038 L657.12,93.124 L656.341,93.899 Z" />
            <path d="M655.474,91.336 L655.68,92.828 L658.407,90.11 L658.407,88.46 L660.935,88.46 L660.935,90.45 L661.597,90.359 L661.945,92.852 L660.346,93.071 L660.379,93.11 L660.112,93.327 L659.117,94.634 L660.797,94.634 L661.971,93.469 L662.9,94.394 L665.283,94.626 L665.096,96.529 L665.327,96.702 L665.041,97.076 L665.036,97.129 L665.003,97.125 L663.798,98.704 L662.48,97.71 L660.27,99.514 L660.935,99.514 L660.935,100.405 L664.536,100.76 L665.819,99.712 L666.514,100.554 C668.334,96.578 671.435,92.601 673.482,91.423 C674.643,90.757 675.882,90.404 677.163,90.264 C674.666,85.905 670.025,83.218 665.001,83.223 C661.307,83.223 657.957,84.655 655.456,86.979 L655.905,87.427 L654.733,88.595 L654.733,88.704 L656.476,90.023 Z M653.506,92.297 L653.506,90.933 L652.941,90.508 C652.788,91.331 652.721,92.167 652.74,93.003 L652.767,93.032 Z M667.004,118.559 C666.335,116.138 667.167,113.916 666.912,112.187 C666.69,112.334 666.444,112.442 666.186,112.506 L666.176,112.51 C666.054,112.538 665.93,112.557 665.805,112.567 L665.766,112.572 C665.651,112.577 665.536,112.573 665.421,112.563 L665.345,112.559 C665.241,112.545 665.138,112.522 665.038,112.492 C665,112.485 664.965,112.485 664.93,112.466 C664.834,112.434 664.743,112.388 664.65,112.344 C664.611,112.323 664.568,112.311 664.531,112.288 C664.439,112.237 664.352,112.169 664.265,112.101 C664.23,112.074 664.191,112.052 664.157,112.022 C664.034,111.913 663.921,111.792 663.82,111.662 L662.844,110.379 C660.056,111.97 659.09,114.817 656.454,115.988 C653.271,117.401 648.778,119.595 645.501,119.122 C644.335,118.95 643.36,118.365 642.481,117.556 C642.229,118.598 642.1,119.666 642.096,120.738 C642.096,128.443 648.37,134.693 656.113,134.693 C658.581,134.693 660.897,134.05 662.913,132.934 C664.222,132.041 665.336,130.97 666.067,129.692 C667.806,126.643 668.011,122.205 667.004,118.559" />
            <path d="M683.331,92.704 C683.215,92.67 683.101,92.622 682.986,92.59 C680.57,91.913 678.142,91.756 675.826,92.687 C673.5,93.627 669.569,97.518 667.245,101.439 L667.425,101.656 L666.861,102.115 C666.186,103.355 665.684,104.583 665.474,105.703 C665.398,106.117 665.363,106.537 665.368,106.958 L666.852,108.906 C670.228,108.963 671.98,106.433 675.929,108.023 C680.699,109.948 684.741,110.63 687.337,113.692 C687.786,114.223 688.088,114.663 688.325,115.074 C690.721,112.507 692.054,109.128 692.056,105.617 C692.053,99.778 688.446,94.783 683.331,92.704" />
        </g>
    </g>
</svg>