<?xml version="1.0" encoding="UTF-8"?>
<svg height="600" width="800" xmlns="http://www.w3.org/2000/svg" xmlns:xlink="http://www.w3.org/1999/xlink">
    <g id="Notes" font-family="'LucidaGrande', 'Lucida Grande', sans-serif" font-size="13">
        <rect fill="white" height="600.0" width="800.0" x="0.0" y="0.0" />
        <g font-size="13">
            <text x="18.0" y="176.0">Small</text>
            <text x="18.0" y="376.0">Medium</text>
            <text x="18.0" y="576.0">Large</text>
        </g>
        <g font-size="9">
            <text x="250.0" y="30.0">Ultralight</text>
            <text x="450.0" y="30.0">Regular</text>
            <text x="650.0" y="30.0">Black</text>
            <text id="template-version" fill="#505050" text-anchor="end" x="785.0" y="575.0">Template v.3.0</text>
            <a href="https://wangchujiang.com/#/app">
                <text fill="#505050" text-anchor="end" x="785.0" y="590.0">https://wangchujiang.com/#/app</text>
            </a>
        </g>
    </g>
    <g id="Guides" stroke="rgb(39, 170, 225)" stroke-width="0.5">
        <path id="Capline-S" d="M18,76 l800,0" />
        <path id="H-reference" d="M85,145.755 L87.685,145.755 L113.369,79.287 L114.052,79.287 L114.052,76 L112.148,76 L85,145.755 Z M95.693,121.536 L130.996,121.536 L130.263,119.313 L96.474,119.313 L95.693,121.536 Z M139.15,145.755 L141.787,145.755 L114.638,76 L113.466,76 L113.466,79.287 L139.15,145.755 Z" stroke="none" />
        <path id="Baseline-S" d="M18,146 l800,0" />
        <path id="left-margin-Ultralight-S" d="M221,56 l0,110" />
        <path id="right-margin-Ultralight-S" d="M309,56 l0,110" />
        <path id="left-margin-Regular-S" d="M421,56 l0,110" />
        <path id="right-margin-Regular-S" d="M509,56 l0,110" />
        <path id="left-margin-Black-S" d="M621,56 l0,110" />
        <path id="right-margin-Black-S" d="M709,56 l0,110" />
        <path id="Capline-M" d="M18,276 l800,0" />
        <path id="Baseline-M" d="M18,346 l800,0" />
        <path id="Capline-L" d="M18,476 l800,0" />
        <path id="Baseline-L" d="M18,546 l800,0" />
    </g>
    <g id="Symbols">
        <g id="Ultralight-S">
            <path d="M274.75,142.198 C277.063,139.506 277.565,136.559 277.804,135.044 C278.167,132.735 277.961,130.805 277.743,129.586 C276.823,124.613 275.903,119.639 274.983,114.666 L254.42,114.666 L252.167,129.319 C251.523,133.498 252.734,137.737 255.486,140.946 C256.76,142.431 258.3,143.623 260.007,144.475 C260.678,144.81 263.126,145.966 266.47,145.997 C267.445,146.006 268.471,146.015 269.755,145.64 C272.425,144.859 274.014,143.056 274.75,142.199 Z" />
            <path d="M288.589,111.642 C291.42,111.642 294.121,110.286 295.815,108.016 C297.5,105.756 298.037,102.768 297.232,100.055 C293.181,86.401 280.491,76 265,76 C249.508,76 236.826,86.373 232.767,100.055 C231.982,102.702 232.462,105.706 234.184,108.015 C235.878,110.286 238.579,111.642 241.409,111.642 L288.589,111.642 Z M264.999,91.043 C268.761,91.043 271.808,94.093 271.808,97.855 C271.808,101.617 268.761,104.667 264.999,104.667 C261.237,104.667 258.191,101.617 258.191,97.855 C258.191,94.094 261.238,91.043 264.999,91.043 Z M292.687,101.405 C292.998,102.454 292.888,103.584 292.405,104.548 C288.433,103.881 285.408,100.428 285.408,96.267 C285.408,94.337 286.06,92.56 287.154,91.141 C289.636,94.096 291.549,97.568 292.687,101.405 Z M279.416,84.642 C278.679,85.288 277.714,85.681 276.656,85.681 C274.427,85.681 272.605,83.94 272.474,81.742 C274.917,82.406 277.249,83.386 279.416,84.642 Z M257.524,81.743 C257.392,83.94 255.571,85.681 253.342,85.681 C252.284,85.681 251.32,85.289 250.583,84.643 C252.749,83.387 255.082,82.407 257.524,81.743 Z M237.312,101.405 C238.496,97.415 240.516,93.82 243.144,90.79 C244.409,92.261 245.177,94.173 245.177,96.267 C245.177,100.618 241.872,104.195 237.636,104.623 C237.117,103.643 236.993,102.481 237.312,101.405 Z" />
        </g>
        <g id="Regular-S">
            <path d="M474.75,142.198 C477.063,139.506 477.565,136.559 477.804,135.044 C478.167,132.735 477.961,130.805 477.743,129.586 C476.823,124.613 475.903,119.639 474.983,114.666 L454.42,114.666 L452.167,129.319 C451.523,133.498 452.734,137.737 455.486,140.946 C456.76,142.431 458.3,143.623 460.007,144.475 C460.678,144.81 463.126,145.966 466.47,145.997 C467.445,146.006 468.471,146.015 469.755,145.64 C472.425,144.859 474.014,143.056 474.75,142.199 Z" />
            <path d="M488.589,111.642 C491.42,111.642 494.121,110.286 495.815,108.016 C497.5,105.756 498.037,102.768 497.232,100.055 C493.181,86.401 480.491,76 465,76 C449.508,76 436.826,86.373 432.767,100.055 C431.982,102.702 432.462,105.706 434.184,108.015 C435.878,110.286 438.579,111.642 441.409,111.642 L488.589,111.642 Z M464.999,91.043 C468.761,91.043 471.808,94.093 471.808,97.855 C471.808,101.617 468.761,104.667 464.999,104.667 C461.237,104.667 458.191,101.617 458.191,97.855 C458.191,94.094 461.238,91.043 464.999,91.043 Z M492.687,101.405 C492.998,102.454 492.888,103.584 492.405,104.548 C488.433,103.881 485.408,100.428 485.408,96.267 C485.408,94.337 486.06,92.56 487.154,91.141 C489.636,94.096 491.549,97.568 492.687,101.405 Z M479.416,84.642 C478.679,85.288 477.714,85.681 476.656,85.681 C474.427,85.681 472.605,83.94 472.474,81.742 C474.917,82.406 477.249,83.386 479.416,84.642 Z M457.524,81.743 C457.392,83.94 455.571,85.681 453.342,85.681 C452.284,85.681 451.32,85.289 450.583,84.643 C452.749,83.387 455.082,82.407 457.524,81.743 Z M437.312,101.405 C438.496,97.415 440.516,93.82 443.144,90.79 C444.409,92.261 445.177,94.173 445.177,96.267 C445.177,100.618 441.872,104.195 437.636,104.623 C437.117,103.643 436.993,102.481 437.312,101.405 Z" />
        </g>
        <g id="Black-S">
            <path d="M674.75,142.198 C677.063,139.506 677.565,136.559 677.804,135.044 C678.167,132.735 677.961,130.805 677.743,129.586 C676.823,124.613 675.903,119.639 674.983,114.666 L654.42,114.666 L652.167,129.319 C651.523,133.498 652.734,137.737 655.486,140.946 C656.76,142.431 658.3,143.623 660.007,144.475 C660.678,144.81 663.126,145.966 666.47,145.997 C667.445,146.006 668.471,146.015 669.755,145.64 C672.425,144.859 674.014,143.056 674.75,142.199 Z" />
            <path d="M688.589,111.642 C691.42,111.642 694.121,110.286 695.815,108.016 C697.5,105.756 698.037,102.768 697.232,100.055 C693.182,86.401 680.491,76 665,76 C649.508,76 636.826,86.373 632.767,100.055 C631.982,102.702 632.462,105.706 634.184,108.015 C635.878,110.286 638.579,111.642 641.409,111.642 L688.589,111.642 Z M664.999,91.043 C668.761,91.043 671.808,94.093 671.808,97.855 C671.808,101.617 668.761,104.667 664.999,104.667 C661.237,104.667 658.191,101.617 658.191,97.855 C658.191,94.094 661.238,91.043 664.999,91.043 Z M692.687,101.405 C692.998,102.454 692.888,103.584 692.405,104.548 C688.433,103.881 685.408,100.428 685.408,96.267 C685.408,94.337 686.06,92.56 687.154,91.141 C689.636,94.096 691.549,97.568 692.687,101.405 Z M679.416,84.642 C678.679,85.288 677.714,85.681 676.656,85.681 C674.427,85.681 672.605,83.94 672.474,81.742 C674.917,82.406 677.249,83.386 679.416,84.642 Z M657.524,81.743 C657.392,83.94 655.571,85.681 653.341,85.681 C652.284,85.681 651.32,85.289 650.583,84.643 C652.749,83.387 655.082,82.407 657.524,81.743 Z M637.312,101.405 C638.496,97.415 640.516,93.82 643.144,90.79 C644.409,92.261 645.177,94.173 645.177,96.267 C645.177,100.618 641.872,104.195 637.636,104.623 C637.117,103.643 636.992,102.481 637.312,101.405 Z" />
        </g>
    </g>
</svg>