<?xml version="1.0" encoding="UTF-8"?>
<svg height="600" width="800" xmlns="http://www.w3.org/2000/svg" xmlns:xlink="http://www.w3.org/1999/xlink">
    <g id="Notes" font-family="'LucidaGrande', 'Lucida Grande', sans-serif" font-size="13">
        <rect fill="white" height="600.0" width="800.0" x="0.0" y="0.0" />
        <g font-size="13">
            <text x="18.0" y="176.0">Small</text>
            <text x="18.0" y="376.0">Medium</text>
            <text x="18.0" y="576.0">Large</text>
        </g>
        <g font-size="9">
            <text x="250.0" y="30.0">Ultralight</text>
            <text x="450.0" y="30.0">Regular</text>
            <text x="650.0" y="30.0">Black</text>
            <text id="template-version" fill="#505050" text-anchor="end" x="785.0" y="575.0">Template v.3.0</text>
            <a href="https://wangchujiang.com/#/app">
                <text fill="#505050" text-anchor="end" x="785.0" y="590.0">https://wangchujiang.com/#/app</text>
            </a>
        </g>
    </g>
    <g id="Guides" stroke="rgb(39, 170, 225)" stroke-width="0.5">
        <path id="Capline-S" d="M18,76 l800,0" />
        <path id="H-reference" d="M85,145.755 L87.685,145.755 L113.369,79.287 L114.052,79.287 L114.052,76 L112.148,76 L85,145.755 Z M95.693,121.536 L130.996,121.536 L130.263,119.313 L96.474,119.313 L95.693,121.536 Z M139.15,145.755 L141.787,145.755 L114.638,76 L113.466,76 L113.466,79.287 L139.15,145.755 Z" stroke="none" />
        <path id="Baseline-S" d="M18,146 l800,0" />
        <path id="left-margin-Ultralight-S" d="M221,56 l0,110" />
        <path id="right-margin-Ultralight-S" d="M309,56 l0,110" />
        <path id="left-margin-Regular-S" d="M421,56 l0,110" />
        <path id="right-margin-Regular-S" d="M509,56 l0,110" />
        <path id="left-margin-Black-S" d="M621,56 l0,110" />
        <path id="right-margin-Black-S" d="M709,56 l0,110" />
        <path id="Capline-M" d="M18,276 l800,0" />
        <path id="Baseline-M" d="M18,346 l800,0" />
        <path id="Capline-L" d="M18,476 l800,0" />
        <path id="Baseline-L" d="M18,546 l800,0" />
    </g>
    <g id="Symbols">
        <g id="Ultralight-S">
            <path d="M262.769,76.323 C263.678,76.727 264.39,77.475 264.747,78.404 C265.105,79.333 265.078,80.365 264.674,81.275 C263.974,82.855 263.289,85.311 262.729,88.427 C272.908,88.068 283.041,86.88 293.028,84.876 C295.061,84.471 297.037,85.791 297.442,87.824 C297.847,89.857 296.527,91.833 294.494,92.238 C283.686,94.388 272.737,95.664 261.779,95.964 C261.524,99.1 261.404,102.466 261.449,105.917 C265.115,105.452 268.681,105.497 271.777,106.067 C273.251,106.344 274.686,106.344 276.083,107.112 C276.26,106.095 276.32,106.095 276.263,104.386 C276.135,103.029 276.753,101.708 277.878,100.937 C279.003,100.167 280.458,100.067 281.678,100.678 C282.897,101.289 283.689,102.514 283.746,103.876 C283.863,105.949 283.657,108.028 283.135,110.038 C287.997,112.704 291.833,116.39 293.859,120.761 C295.629,124.572 295.969,128.849 294.359,133.07 C292.783,137.221 289.457,140.972 284.551,144.163 C282.813,145.292 280.49,144.798 279.362,143.061 C278.233,141.323 278.727,139 280.465,137.872 C284.466,135.276 286.491,132.66 287.352,130.404 C288.173,128.297 288.064,125.94 287.052,123.917 C285.936,121.507 283.671,119.106 280.475,117.165 C278.636,120.84 276.38,124.29 273.752,127.448 C271.754,129.884 269.55,132.142 267.165,134.2 C268.346,136.376 269.696,138.132 271.191,139.417 C272.748,140.769 272.921,143.124 271.58,144.69 C270.238,146.255 267.885,146.445 266.31,145.114 C264.21,143.267 262.435,141.081 261.058,138.647 C257.747,140.627 254.256,142.033 250.72,142.548 C247.789,142.978 244.238,142.778 241.142,141.458 C237.926,140.092 234.976,137.371 234.34,132.93 C232.805,122.162 239.357,114.645 247.129,110.423 C249.319,109.252 251.613,108.288 253.981,107.542 C253.877,103.698 253.965,99.85 254.246,96.014 C248.077,95.929 241.917,95.519 235.791,94.784 C233.733,94.536 232.265,92.668 232.512,90.61 C232.76,88.552 234.628,87.084 236.686,87.331 C242.799,88.061 248.946,88.459 255.102,88.522 C255.752,84.421 256.662,80.82 257.818,78.229 C258.221,77.319 258.97,76.608 259.899,76.25 C260.827,75.893 261.86,75.919 262.769,76.323 M254.476,115.31 C253.173,115.8 251.916,115.8 250.705,117.025 C244.498,120.391 240.837,125.368 241.768,131.88 C241.943,133.1 242.643,133.95 244.078,134.561 C245.639,135.221 247.744,135.411 249.63,135.131 C252.281,134.746 255.117,133.555 257.932,131.765 C257.742,131.229 257.561,130.691 257.387,130.149 C255.937,125.533 255.001,120.441 254.476,115.31 M264.204,126.763 C265.511,125.496 266.765,125.496 267.965,122.682 C270.141,120.065 272.023,117.217 273.577,114.189 C272.535,113.894 271.481,113.647 270.416,113.449 C267.955,112.994 264.965,112.984 261.834,113.434 C262.254,118.126 263.024,122.687 264.204,126.758" />
        </g>
        <g id="Regular-S">
            <path d="M462.769,76.323 C463.678,76.727 464.39,77.475 464.747,78.404 C465.105,79.333 465.078,80.365 464.674,81.275 C463.974,82.855 463.289,85.311 462.729,88.427 C472.908,88.068 483.041,86.88 493.028,84.876 C495.061,84.471 497.037,85.791 497.442,87.824 C497.847,89.857 496.527,91.833 494.494,92.238 C483.686,94.388 472.737,95.664 461.779,95.964 C461.524,99.1 461.404,102.466 461.449,105.917 C465.115,105.452 468.681,105.497 471.777,106.067 C473.251,106.344 474.686,106.344 476.083,107.112 C476.26,106.095 476.32,106.095 476.263,104.386 C476.135,103.029 476.753,101.708 477.878,100.937 C479.003,100.167 480.458,100.067 481.678,100.678 C482.897,101.289 483.689,102.514 483.746,103.876 C483.863,105.949 483.657,108.028 483.135,110.038 C487.997,112.704 491.833,116.39 493.859,120.761 C495.629,124.572 495.969,128.849 494.359,133.07 C492.783,137.221 489.457,140.972 484.551,144.163 C482.813,145.292 480.49,144.798 479.362,143.061 C478.233,141.323 478.727,139 480.465,137.872 C484.466,135.276 486.491,132.66 487.352,130.404 C488.173,128.297 488.064,125.94 487.052,123.917 C485.936,121.507 483.671,119.106 480.475,117.165 C478.636,120.84 476.38,124.29 473.752,127.448 C471.754,129.884 469.55,132.142 467.165,134.2 C468.346,136.376 469.696,138.132 471.191,139.417 C472.748,140.769 472.921,143.124 471.58,144.69 C470.238,146.255 467.885,146.445 466.31,145.114 C464.21,143.267 462.435,141.081 461.058,138.647 C457.747,140.627 454.256,142.033 450.72,142.548 C447.789,142.978 444.238,142.778 441.142,141.458 C437.926,140.092 434.976,137.371 434.34,132.93 C432.805,122.162 439.357,114.645 447.129,110.423 C449.319,109.252 451.613,108.288 453.981,107.542 C453.877,103.698 453.965,99.85 454.246,96.014 C448.077,95.929 441.917,95.519 435.791,94.784 C433.733,94.536 432.265,92.668 432.512,90.61 C432.76,88.552 434.629,87.084 436.686,87.331 C442.799,88.061 448.946,88.459 455.102,88.522 C455.752,84.421 456.662,80.82 457.818,78.229 C458.221,77.319 458.97,76.608 459.899,76.25 C460.827,75.893 461.86,75.919 462.769,76.323 M454.476,115.31 C453.173,115.8 451.916,115.8 450.705,117.025 C444.498,120.391 440.837,125.368 441.768,131.88 C441.943,133.1 442.643,133.95 444.078,134.561 C445.639,135.221 447.744,135.411 449.63,135.131 C452.281,134.746 455.117,133.555 457.932,131.765 C457.742,131.229 457.561,130.691 457.387,130.149 C455.937,125.533 455.001,120.441 454.476,115.31 M464.204,126.763 C465.511,125.496 466.765,125.496 467.965,122.682 C470.141,120.065 472.023,117.217 473.577,114.189 C472.535,113.894 471.481,113.647 470.416,113.449 C467.955,112.994 464.965,112.984 461.834,113.434 C462.254,118.126 463.024,122.687 464.204,126.758" />
        </g>
        <g id="Black-S">
            <path d="M662.769,76.323 C663.678,76.727 664.39,77.475 664.747,78.404 C665.105,79.333 665.078,80.365 664.674,81.275 C663.974,82.855 663.289,85.311 662.729,88.427 C672.908,88.068 683.042,86.88 693.028,84.876 C695.061,84.471 697.037,85.791 697.442,87.824 C697.847,89.857 696.527,91.833 694.494,92.238 C683.686,94.388 672.737,95.664 661.779,95.964 C661.524,99.1 661.404,102.466 661.449,105.917 C665.115,105.452 668.681,105.497 671.777,106.067 C673.251,106.344 674.686,106.344 676.083,107.112 C676.26,106.095 676.32,106.095 676.263,104.386 C676.135,103.029 676.753,101.708 677.878,100.937 C679.003,100.167 680.458,100.067 681.678,100.678 C682.897,101.289 683.689,102.514 683.746,103.876 C683.863,105.949 683.657,108.028 683.135,110.038 C687.997,112.704 691.833,116.39 693.859,120.761 C695.629,124.572 695.969,128.849 694.359,133.07 C692.783,137.221 689.457,140.972 684.551,144.163 C682.813,145.292 680.49,144.798 679.362,143.061 C678.233,141.323 678.727,139 680.465,137.872 C684.466,135.276 686.491,132.66 687.352,130.404 C688.173,128.297 688.064,125.94 687.052,123.917 C685.936,121.507 683.671,119.106 680.475,117.165 C678.636,120.84 676.38,124.29 673.752,127.448 C671.754,129.884 669.55,132.142 667.165,134.2 C668.346,136.376 669.696,138.132 671.191,139.417 C672.748,140.769 672.921,143.124 671.58,144.69 C670.238,146.255 667.885,146.445 666.31,145.114 C664.21,143.267 662.435,141.081 661.058,138.647 C657.747,140.627 654.256,142.033 650.72,142.548 C647.789,142.978 644.238,142.778 641.142,141.458 C637.926,140.092 634.976,137.371 634.34,132.93 C632.805,122.162 639.357,114.645 647.129,110.423 C649.319,109.252 651.613,108.288 653.981,107.542 C653.877,103.698 653.965,99.85 654.246,96.014 C648.077,95.929 641.917,95.519 635.791,94.784 C633.733,94.536 632.265,92.668 632.512,90.61 C632.76,88.552 634.628,87.084 636.686,87.331 C642.799,88.061 648.946,88.459 655.102,88.522 C655.752,84.421 656.662,80.82 657.818,78.229 C658.221,77.319 658.97,76.608 659.899,76.25 C660.827,75.893 661.86,75.919 662.769,76.323 M654.476,115.31 C653.173,115.8 651.916,115.8 650.705,117.025 C644.498,120.391 640.837,125.368 641.768,131.88 C641.943,133.1 642.643,133.95 644.078,134.561 C645.639,135.221 647.744,135.411 649.63,135.131 C652.281,134.746 655.117,133.555 657.932,131.765 C657.742,131.229 657.561,130.691 657.387,130.149 C655.937,125.533 655.002,120.441 654.476,115.31 M664.204,126.763 C665.511,125.496 666.765,125.496 667.965,122.682 C670.141,120.065 672.023,117.217 673.577,114.189 C672.535,113.894 671.481,113.647 670.416,113.449 C667.955,112.994 664.965,112.984 661.834,113.434 C662.254,118.126 663.024,122.687 664.204,126.758" />
        </g>
    </g>
</svg>